<svg viewBox="0 0 9 15"><path d="M4.116 7.324a3.672 3.672 0 003.662-3.662C7.778 1.628 6.11 0 4.116 0S.454 1.668.454 3.662s1.628 3.662 3.662 3.662zm0-5.208c.855 0 1.506.692 1.506 1.505 0 .855-.692 1.506-1.506 1.506A1.502 1.502 0 012.611 3.62c0-.813.65-1.505 1.505-1.505zm1.506 8.178l2.075 2.116a1.081 1.081 0 010 1.506 1.081 1.081 0 01-1.506 0L4.157 11.88l-2.035 2.035a1.112 1.112 0 01-.773.325c-.284 0-.57-.122-.773-.325a1.081 1.081 0 010-1.506l2.035-2.075c-.733-.163-1.465-.488-2.116-.895-.488-.326-.651-1.017-.326-1.506.285-.488.977-.65 1.465-.325a4.74 4.74 0 004.964 0c.489-.326 1.14-.163 1.465.325.326.489.163 1.14-.325 1.465a6.038 6.038 0 01-2.116.895z"></path></svg>
