<svg viewBox="0 0 16 13"><path fill-rule="evenodd" d="M14.115 2.055A3.29 3.29 0 0015.558.24a6.577 6.577 0 01-2.085.796A3.283 3.283 0 007.88 4.03 9.32 9.32 0 011.113.602 3.27 3.27 0 00.67 2.25a3.28 3.28 0 001.46 2.731 3.272 3.272 0 01-1.486-.41v.04a3.283 3.283 0 002.633 3.219 3.275 3.275 0 01-1.483.056 3.287 3.287 0 003.067 2.28A6.585 6.585 0 010 11.526 9.293 9.293 0 005.032 13c6.038 0 9.34-5 9.34-9.338 0-.142-.004-.284-.01-.424A6.682 6.682 0 0016 1.538a6.555 6.555 0 01-1.885.517z"></path></svg>
