<svg viewBox="0 0 363 214"><path fill-rule="evenodd" d="M301.411 105s47.808-67.437 52.56-89.6c1.582-7.915-1.9-12.35-10.134-12.35h-41.475c-9.499 0-12.981 4.117-15.83 10.133 0 0-22.425 47.78-49.709 77.888-8.758 9.733-13.212 12.662-18.046 12.662-3.9 0-5.699-3.25-5.699-12.03V14.767c0-10.764-1.267-13.931-10.13-13.931h-66.489c-5.066 0-8.233 2.945-8.233 6.964 0 10.137 15.515 12.427 15.515 39.893v56.674c0 11.398-.634 15.83-6.016 15.83-14.247 0-48.124-49.073-67.12-104.797C66.805 4.003 62.689.836 51.923.836H10.448C4.433.836 0 4.951 0 10.966c0 11.08 12.98 62.373 63.955 131.078 34.194 46.224 79.152 71.236 119.678 71.236 24.696 0 30.712-4.115 30.712-14.564v-35.46c0-8.865 3.482-12.664 8.548-12.664 5.698 0 15.757 1.83 39.26 25.012 27.861 26.596 29.761 37.676 44.96 37.676h46.54c4.75 0 9.181-2.216 9.181-10.13 0-10.45-13.615-29.129-34.51-51.293-8.549-11.397-22.48-23.744-26.913-29.442-6.33-6.65-4.432-10.451 0-17.415"></path></svg>
