<?xml version="1.0" encoding="iso-8859-1"?>
<!-- Generator: Adobe Illustrator 19.0.0, SVG Export Plug-In . SVG Version: 6.00 Build 0)  -->
<svg version="1.1" id="Capa_1" xmlns="http://www.w3.org/2000/svg" xmlns:xlink="http://www.w3.org/1999/xlink" x="0px" y="0px"
	 viewBox="0 0 63.907 63.907" style="enable-background:new 0 0 63.907 63.907;" xml:space="preserve">
<g id="Rugby-ball">
	<path d="M59.918,3.99C51.383-4.543,31.9,1.065,16.483,16.484C1.064,31.902-4.541,51.386,3.989,59.918
		c2.706,2.705,6.512,3.989,10.942,3.989c9.539,0,21.964-5.954,32.493-16.483C62.843,32.006,68.448,12.522,59.918,3.99z
		 M58.504,5.404c3.845,3.846,4.4,10.268,2.199,17.55c-0.085-0.024-0.168-0.054-0.259-0.055c-0.04-0.001-4.053-0.133-11.676-7.758
		c-7.625-7.624-7.759-11.636-7.759-11.656c0.003-0.096-0.024-0.183-0.047-0.271c2.798-0.845,5.472-1.297,7.918-1.297
		C52.795,1.917,56.137,3.038,58.504,5.404z M5.403,58.504c-3.682-3.683-4.344-9.73-2.461-16.631
		c1.048,0.178,4.906,1.25,11.374,7.719c6.466,6.465,7.54,10.324,7.719,11.374C15.134,62.849,9.087,62.187,5.403,58.504z
		 M46.01,46.01c-7.042,7.042-14.909,11.986-22.044,14.367c-0.349-1.736-1.85-5.814-8.236-12.2C9.35,41.796,5.268,40.29,3.532,39.941
		c2.38-7.134,7.324-15.001,14.365-22.043c6.746-6.746,14.246-11.559,21.137-14.045c0.15,1.34,1.212,5.596,8.319,12.702
		c7.121,7.123,11.378,8.174,12.709,8.32C57.576,31.765,52.755,39.266,46.01,46.01z"/>
	<path d="M37.911,27.411l1.564-1.564c0.391-0.391,0.391-1.023,0-1.414c-0.391-0.391-1.023-0.391-1.414,0l-1.565,1.564l-2.7-2.7
		c-0.391-0.391-1.023-0.391-1.414,0c-0.391,0.391-0.391,1.023,0,1.414l2.7,2.7l-3.129,3.129l-2.699-2.699
		c-0.391-0.391-1.023-0.391-1.414,0c-0.391,0.391-0.391,1.024,0,1.414l2.699,2.699l-3.129,3.129l-2.7-2.701
		c-0.391-0.391-1.024-0.391-1.414,0c-0.391,0.391-0.391,1.023,0,1.414l2.7,2.701l-1.565,1.564c-0.391,0.391-0.391,1.024,0,1.414
		c0.195,0.195,0.451,0.293,0.707,0.293s0.512-0.098,0.707-0.293l1.565-1.564l2.7,2.7c0.195,0.195,0.451,0.293,0.707,0.293
		c0.256,0,0.512-0.098,0.707-0.293c0.391-0.391,0.391-1.023,0-1.414l-2.7-2.7l3.129-3.129l2.699,2.7
		c0.195,0.195,0.451,0.293,0.707,0.293c0.256,0,0.512-0.098,0.707-0.293c0.391-0.391,0.391-1.023,0-1.414l-2.699-2.7l3.129-3.129
		l2.7,2.701c0.195,0.195,0.451,0.293,0.707,0.293c0.256,0,0.512-0.098,0.707-0.293c0.391-0.391,0.391-1.023,0-1.414L37.911,27.411z"
		/>
</g>
<g>
</g>
<g>
</g>
<g>
</g>
<g>
</g>
<g>
</g>
<g>
</g>
<g>
</g>
<g>
</g>
<g>
</g>
<g>
</g>
<g>
</g>
<g>
</g>
<g>
</g>
<g>
</g>
<g>
</g>
</svg>
