<?xml version="1.0" encoding="iso-8859-1"?>
<!-- Generator: Adobe Illustrator 19.0.0, SVG Export Plug-In . SVG Version: 6.00 Build 0)  -->
<svg version="1.1" id="Capa_1" xmlns="http://www.w3.org/2000/svg" xmlns:xlink="http://www.w3.org/1999/xlink" x="0px" y="0px"
	 viewBox="0 0 64 64" style="enable-background:new 0 0 64 64;" xml:space="preserve">
<g id="Arch_1_">
	<path id="Arch" d="M57,30H33V15.684l17.362-6.752C50.747,8.783,51,8.413,51,8c0-0.413-0.253-0.783-0.638-0.932l-18-7
		c-0.105-0.041-0.215-0.056-0.325-0.06C32.024,0.007,32.013,0,32,0c-0.012,0-0.022,0.007-0.035,0.007
		c-0.116,0.004-0.229,0.025-0.338,0.068c-0.018,0.007-0.033,0.018-0.051,0.026c-0.048,0.023-0.097,0.043-0.141,0.073
		c-0.04,0.027-0.072,0.062-0.107,0.094c-0.016,0.015-0.033,0.027-0.048,0.042c-0.078,0.081-0.139,0.173-0.185,0.274
		c-0.01,0.022-0.017,0.044-0.025,0.066C31.029,0.763,31,0.878,31,1v14v15H7c-0.552,0-1,0.448-1,1v32c0,0.552,0.448,1,1,1h16.25
		c0.552,0,1-0.448,1-1v-9.88c0-1.771,0.762-3.475,2.089-4.675c1.196-1.081,2.75-1.676,4.375-1.676h2.495
		c1.724,0,3.411,0.688,4.63,1.887c1.214,1.196,1.91,2.849,1.91,4.537V63c0,0.552,0.448,1,1,1H57c0.552,0,1-0.448,1-1V31
		C58,30.448,57.552,30,57,30z M33,13.538V2.462L47.241,8L33,13.538z M56,32v5H8v-5H56z M41.75,62v-8.807
		c0-2.22-0.914-4.393-2.507-5.962c-1.614-1.587-3.756-2.462-6.033-2.462h-2.495c-2.122,0-4.152,0.778-5.716,2.192
		c-1.747,1.579-2.749,3.823-2.749,6.158V62H8V39h48v23H41.75z"/>
</g>
<g>
</g>
<g>
</g>
<g>
</g>
<g>
</g>
<g>
</g>
<g>
</g>
<g>
</g>
<g>
</g>
<g>
</g>
<g>
</g>
<g>
</g>
<g>
</g>
<g>
</g>
<g>
</g>
<g>
</g>
</svg>
