<?xml version="1.0" encoding="iso-8859-1"?>
<!-- Generator: Adobe Illustrator 19.0.0, SVG Export Plug-In . SVG Version: 6.00 Build 0)  -->
<svg version="1.1" id="Capa_1" xmlns="http://www.w3.org/2000/svg" xmlns:xlink="http://www.w3.org/1999/xlink" x="0px" y="0px"
	 viewBox="0 0 63.71 63.71" style="enable-background:new 0 0 63.71 63.71;" xml:space="preserve">
<g id="Baseball">
	<path d="M63.273,8.487c-0.061-0.534-0.331-0.983-0.745-1.237c-0.843-0.516-1.873-1.148-2.718-1.666
		c-0.243-0.148-0.522-0.223-0.812-0.223c-0.21,0-0.426,0.039-0.639,0.118c-0.507,0.19-0.949,0.591-1.221,1.104
		C54.05,12.414,45.74,29.345,45.74,29.345l-2.226,3.631l-10.068-6.293l-5.584-10.2c-0.007-0.012-0.018-0.018-0.025-0.03l0.858-1.832
		c0.454,0.121,0.921,0.196,1.398,0.196c0.612,0,1.235-0.104,1.844-0.322c1.374-0.494,2.474-1.495,3.097-2.816
		c0.623-1.322,0.694-2.807,0.2-4.18c-0.494-1.374-1.494-2.474-2.816-3.097c-1.322-0.622-2.808-0.694-4.182-0.2
		c-2.837,1.019-4.316,4.158-3.296,6.996c0.387,1.075,1.082,1.95,1.946,2.573l-9.621,20.527c-0.082,0.103-0.145,0.223-0.182,0.358
		l-0.02,0.075l-0.171,0.364c-0.021,0.045-0.02,0.092-0.034,0.138c-0.022,0.073-0.048,0.143-0.053,0.218
		c-0.004,0.058,0.009,0.113,0.015,0.17l-2.888,10.588L0.746,57.928c-0.026,0.023-0.038,0.056-0.061,0.082
		c-0.023,0.025-0.053,0.038-0.074,0.066c-0.021,0.027-0.025,0.06-0.042,0.089c-0.036,0.06-0.064,0.119-0.087,0.183
		c-0.021,0.06-0.037,0.118-0.046,0.18c-0.01,0.064-0.012,0.125-0.009,0.189c0.003,0.064,0.01,0.125,0.025,0.188
		c0.014,0.062,0.035,0.118,0.061,0.177c0.028,0.062,0.06,0.117,0.101,0.173c0.02,0.028,0.027,0.061,0.05,0.087
		c0.022,0.025,0.053,0.034,0.076,0.056c0.026,0.025,0.041,0.057,0.071,0.08l5.379,4.035c0.18,0.135,0.391,0.2,0.599,0.2
		c0.304,0,0.604-0.138,0.801-0.4c0.332-0.442,0.242-1.069-0.2-1.4l-4.4-3.3l12.493-11.104c0.145-0.129,0.249-0.297,0.3-0.484
		l2.534-9.29l8.725,10.65l-5.669,11.338c-0.247,0.494-0.047,1.095,0.447,1.342c0.144,0.072,0.296,0.105,0.446,0.105
		c0.075,0,0.149-0.014,0.221-0.03c0.051,0.008,0.097,0.03,0.15,0.03h7.449c0.552,0,1-0.448,1-1c0-0.552-0.448-1-1-1h-6.202
		l5.235-10.47c0.176-0.353,0.129-0.776-0.121-1.081l-10.03-12.243l6.766-14.437v9.436c0,0.464,0.319,0.867,0.771,0.973l15.732,3.713
		l-0.827,1.349L40.42,35.8l-1.083,1.764l3.962,2.43l1.083-1.766l-0.99-0.606l1.102-1.797c0.039,0.005,0.078,0.016,0.117,0.016
		c0.333,0,0.659-0.167,0.849-0.47c0.036-0.057,0.045-0.121,0.068-0.181c0.072-0.102,0.131-0.215,0.161-0.345
		c0.064-0.271,0.01-0.542-0.128-0.761l2.16-3.523c0,0,11.338-15.107,15.126-20.493C63.18,9.594,63.334,9.023,63.273,8.487z
		 M28.911,6.083L28.911,6.083c0.383-0.138,0.78-0.206,1.175-0.206c0.504,0,1.007,0.111,1.478,0.333
		c0.839,0.396,1.474,1.093,1.787,1.964c0.313,0.871,0.268,1.813-0.127,2.651c-0.396,0.839-1.093,1.474-1.964,1.787
		c-1.799,0.646-3.792-0.292-4.439-2.092C26.174,8.721,27.112,6.73,28.911,6.083z M27.735,20.417l4.082,7.456
		c0.082,0.15,0.202,0.277,0.347,0.368l6.131,3.832l-10.56-2.493V20.417z M61.211,8.917c-2.008,2.855-6.201,8.526-9.658,13.171
		c2.57-5.181,5.717-11.479,7.353-14.569c0.022-0.041,0.047-0.074,0.07-0.1l0.526,0.323l1.761,1.079
		C61.251,8.85,61.235,8.883,61.211,8.917z"/>
	<path d="M48.779,7c1.93,0,3.5-1.57,3.5-3.5c0-1.93-1.57-3.5-3.5-3.5s-3.5,1.57-3.5,3.5C45.279,5.43,46.849,7,48.779,7z M48.779,2
		c0.827,0,1.5,0.673,1.5,1.5c0,0.827-0.673,1.5-1.5,1.5c-0.827,0-1.5-0.673-1.5-1.5C47.279,2.673,47.952,2,48.779,2z"/>
</g>
<g>
</g>
<g>
</g>
<g>
</g>
<g>
</g>
<g>
</g>
<g>
</g>
<g>
</g>
<g>
</g>
<g>
</g>
<g>
</g>
<g>
</g>
<g>
</g>
<g>
</g>
<g>
</g>
<g>
</g>
</svg>
