<?xml version="1.0" encoding="iso-8859-1"?>
<!-- Generator: Adobe Illustrator 19.0.0, SVG Export Plug-In . SVG Version: 6.00 Build 0)  -->
<svg version="1.1" id="Capa_1" xmlns="http://www.w3.org/2000/svg" xmlns:xlink="http://www.w3.org/1999/xlink" x="0px" y="0px"
	 viewBox="0 0 64 64" style="enable-background:new 0 0 64 64;" xml:space="preserve">
<g id="Bycicle-racer">
	<path d="M9.156,54.112c-1.304-1.133-2.053-2.88-2.167-5.05c-0.029-0.552-0.525-0.986-1.052-0.946
		c-0.552,0.029-0.975,0.5-0.946,1.051c0.145,2.725,1.131,4.956,2.853,6.454c1.532,1.332,3.55,2.022,5.883,2.022
		c0.354,0,0.715-0.016,1.083-0.048c0.55-0.047,0.957-0.532,0.909-1.083c-0.048-0.55-0.528-0.967-1.082-0.91
		C12.398,55.794,10.502,55.282,9.156,54.112z"/>
	<path d="M58.438,48.116c-0.537-0.039-1.022,0.394-1.052,0.946c-0.114,2.17-0.863,3.917-2.167,5.05
		c-1.346,1.17-3.241,1.679-5.48,1.491c-0.537-0.048-1.034,0.359-1.082,0.91c-0.048,0.55,0.359,1.035,0.909,1.083
		c0.368,0.032,0.729,0.048,1.083,0.048c2.333,0,4.351-0.69,5.883-2.022c1.722-1.498,2.708-3.729,2.853-6.454
		C59.413,48.615,58.99,48.145,58.438,48.116z"/>
	<path d="M19.866,26.913l14.555-13.372l-1.968,10.482c-0.098,0.52,0.227,1.026,0.74,1.155l9.98,2.495
		c0.081,0.021,0.163,0.03,0.243,0.03c0.448,0,0.855-0.303,0.969-0.757c0.135-0.536-0.191-1.079-0.728-1.213l-9.066-2.267
		l2.321-12.362c0.01-0.056-0.003-0.108-0.002-0.163c0.617,0.267,1.283,0.426,1.974,0.426c0.427,0,0.861-0.056,1.293-0.171
		c2.662-0.712,4.249-3.459,3.536-6.123c-0.715-2.664-3.467-4.248-6.122-3.534c-2.662,0.712-4.249,3.459-3.536,6.123
		c0.248,0.924,0.749,1.707,1.398,2.32c-0.12,0.044-0.233,0.11-0.333,0.201L17.802,26.093h0v0l-0.013,0.011
		c-0.046,0.042-0.069,0.097-0.105,0.145c-0.042,0.056-0.094,0.107-0.123,0.17c-0.026,0.056-0.03,0.118-0.046,0.177
		c-0.016,0.065-0.043,0.127-0.046,0.194c-0.003,0.065,0.016,0.129,0.026,0.194c0.009,0.062,0.007,0.125,0.028,0.185
		c0.022,0.065,0.069,0.12,0.105,0.18c0.031,0.052,0.049,0.109,0.091,0.156l8.107,9.137l-2.913,2.913
		c-2.433-2.391-5.764-3.872-9.436-3.872C6.045,35.683,0,41.728,0,49.158s6.045,13.475,13.476,13.475
		c7.43,0,13.475-6.045,13.475-13.475c0-3.037-1.022-5.833-2.724-8.089l3.679-3.679c0.374-0.374,0.393-0.975,0.041-1.371
		L19.866,26.913z M38.109,3.47c0.26-0.069,0.519-0.102,0.775-0.102c1.323,0,2.538,0.885,2.897,2.223
		c0.428,1.598-0.524,3.246-2.122,3.674c-1.604,0.425-3.244-0.524-3.673-2.12C35.561,5.545,36.512,3.897,38.109,3.47z M24.95,49.158
		c0,6.327-5.147,11.475-11.475,11.475C7.148,60.633,2,55.485,2,49.158s5.148-11.475,11.476-11.475c3.121,0,5.952,1.256,8.023,3.286
		l-8.73,8.73c-0.391,0.391-0.391,1.023,0,1.414c0.195,0.195,0.451,0.293,0.707,0.293c0.256,0,0.512-0.098,0.707-0.293l8.617-8.617
		C24.147,44.376,24.95,46.673,24.95,49.158z"/>
	<path d="M50.525,35.683c-2.363,0-4.584,0.616-6.517,1.689c-1.369-1.802-2.667-3.502-3.567-4.679l6.655-0.001
		c0.031,0.002,0.202,0.012,0.473,0.012c1.112,0,3.905-0.164,5.549-1.709c0.836-0.786,1.277-1.838,1.277-3.043
		c0-1.373-0.454-2.489-1.349-3.317c-1.761-1.63-4.597-1.433-4.718-1.422c-0.55,0.043-0.959,0.522-0.919,1.071
		c0.04,0.549,0.502,0.962,1.07,0.923c0.578-0.04,2.288,0.039,3.213,0.9c0.473,0.44,0.702,1.043,0.702,1.845
		c0,0.657-0.211,1.175-0.645,1.584c-1.168,1.101-3.666,1.21-4.593,1.159h-8.732h-9.981c-0.553,0-1,0.448-1,1c0,0.552,0.447,1,1,1
		h9.479c1.33,1.738,2.89,3.781,4.414,5.787c-3.208,2.465-5.289,6.329-5.289,10.678c0,7.43,6.045,13.475,13.476,13.475
		c7.43,0,13.475-6.045,13.475-13.475S57.955,35.683,50.525,35.683z M50.525,60.633c-6.328,0-11.476-5.148-11.476-11.475
		c0-3.7,1.768-6.988,4.496-9.088c2.53,3.337,4.717,6.253,5.168,6.935c0.064,0.179,0.182,0.342,0.348,0.463
		c0.179,0.132,0.393,0.197,0.605,0.197c0.263,0,0.524-0.1,0.717-0.296c0.669-0.682,0.667-0.716-5.15-8.384
		c1.585-0.828,3.383-1.303,5.292-1.303C56.853,37.683,62,42.831,62,49.158S56.853,60.633,50.525,60.633z"/>
	<path d="M5.99,32.693h9.981c0.553,0,1-0.448,1-1c0-0.552-0.447-1-1-1H5.99c-0.553,0-1,0.448-1,1
		C4.99,32.245,5.438,32.693,5.99,32.693z"/>
</g>
<g>
</g>
<g>
</g>
<g>
</g>
<g>
</g>
<g>
</g>
<g>
</g>
<g>
</g>
<g>
</g>
<g>
</g>
<g>
</g>
<g>
</g>
<g>
</g>
<g>
</g>
<g>
</g>
<g>
</g>
</svg>
