<?xml version="1.0" encoding="iso-8859-1"?>
<!-- Generator: Adobe Illustrator 19.0.0, SVG Export Plug-In . SVG Version: 6.00 Build 0)  -->
<svg version="1.1" id="Capa_1" xmlns="http://www.w3.org/2000/svg" xmlns:xlink="http://www.w3.org/1999/xlink" x="0px" y="0px"
	 viewBox="0 0 64.001 64.001" style="enable-background:new 0 0 64.001 64.001;" xml:space="preserve">
<g id="Bits">
	<path d="M48.881,42.414c-3.309,0-6,2.691-6,6c0,3.309,2.691,6,6,6c3.309,0,6-2.691,6-6C54.881,45.106,52.189,42.414,48.881,42.414z
		 M48.881,52.414c-2.205,0-4-1.794-4-4c0-2.206,1.795-4,4-4c2.206,0,4,1.794,4,4C52.881,50.62,51.086,52.414,48.881,52.414z"/>
	<path d="M50.039,6.486c-0.301-1.123-1.021-2.062-2.029-2.643l-5.658-3.266c-0.993-0.574-2.149-0.725-3.255-0.43
		c-1.106,0.296-2.032,1.006-2.605,2L18.551,33.222c-0.914,1.583-1.338,3.385-1.227,5.209l0.559,9.125L9.254,62.501
		c-0.276,0.479-0.112,1.09,0.366,1.366c0.158,0.091,0.33,0.134,0.499,0.134c0.346,0,0.682-0.179,0.867-0.5l8.85-15.328l7.829-3.694
		c1.719-0.811,3.129-2.109,4.078-3.753L49.604,9.789C50.185,8.782,50.34,7.609,50.039,6.486z M47.872,8.789L30.011,39.726
		c-0.744,1.29-1.851,2.308-3.199,2.944l-7.023,3.313l-0.47-7.674c-0.087-1.432,0.246-2.845,0.963-4.087L38.224,3.147
		c0.307-0.53,0.8-0.909,1.391-1.067C39.812,2.027,40.012,2,40.21,2c0.397,0,0.789,0.104,1.142,0.309l5.659,3.266
		c0.544,0.314,0.934,0.821,1.096,1.428C48.27,7.611,48.186,8.245,47.872,8.789z"/>
</g>
<g>
</g>
<g>
</g>
<g>
</g>
<g>
</g>
<g>
</g>
<g>
</g>
<g>
</g>
<g>
</g>
<g>
</g>
<g>
</g>
<g>
</g>
<g>
</g>
<g>
</g>
<g>
</g>
<g>
</g>
</svg>
