<?xml version="1.0" encoding="iso-8859-1"?>
<!-- Generator: Adobe Illustrator 19.0.0, SVG Export Plug-In . SVG Version: 6.00 Build 0)  -->
<svg version="1.1" id="Capa_1" xmlns="http://www.w3.org/2000/svg" xmlns:xlink="http://www.w3.org/1999/xlink" x="0px" y="0px"
	 viewBox="0 0 64 64" style="enable-background:new 0 0 64 64;" xml:space="preserve">
<g id="Darts">
	<path d="M32,0C14.355,0,0,14.355,0,32c0,17.645,14.355,32,32,32s32-14.355,32-32C64,14.355,49.645,0,32,0z M32,62
		C15.458,62,2,48.542,2,32S15.458,2,32,2s30,13.458,30,30S48.542,62,32,62z"/>
	<path d="M44,31.031c-0.535,0-0.969,0.434-0.969,0.969c0,6.083-4.949,11.031-11.031,11.031S20.969,38.083,20.969,32
		c0-6.083,4.949-11.031,11.031-11.031c0.535,0,0.969-0.434,0.969-0.969c0-0.535-0.434-0.969-0.969-0.969
		c-7.151,0-12.969,5.818-12.969,12.969c0,7.151,5.818,12.969,12.969,12.969S44.969,39.151,44.969,32
		C44.969,31.465,44.535,31.031,44,31.031z"/>
	<path d="M47.249,21.47h-3.305l2.241-2.241c0.391-0.391,0.391-1.023,0-1.414c-0.391-0.391-1.023-0.391-1.414,0l-2.241,2.241V16.75
		c0-0.552-0.448-1-1-1c-0.552,0-1,0.448-1,1v5.305l-1.867,1.867v-3.305c0-0.552-0.448-1-1-1c-0.552,0-1,0.448-1,1v5.305
		l-1.244,1.244c-0.967-0.686-2.145-1.094-3.419-1.094c-3.268,0-5.927,2.659-5.927,5.927c0,3.269,2.659,5.927,5.927,5.927
		c3.269,0,5.927-2.659,5.927-5.927c0-1.274-0.408-2.452-1.094-3.419l1.244-1.244h5.305c0.552,0,1-0.448,1-1c0-0.552-0.448-1-1-1
		h-3.305l1.867-1.867h5.305c0.552,0,1-0.448,1-1C48.249,21.917,47.802,21.47,47.249,21.47z M36.073,32
		c0,2.246-1.827,4.073-4.073,4.073S27.927,34.246,27.927,32s1.827-4.073,4.073-4.073c0.76,0,1.463,0.222,2.072,0.586l-2.779,2.779
		c-0.391,0.391-0.391,1.023,0,1.414C31.488,32.902,31.744,33,32,33c0.256,0,0.512-0.098,0.707-0.293l2.78-2.78
		C35.85,30.537,36.073,31.24,36.073,32z"/>
</g>
<g>
</g>
<g>
</g>
<g>
</g>
<g>
</g>
<g>
</g>
<g>
</g>
<g>
</g>
<g>
</g>
<g>
</g>
<g>
</g>
<g>
</g>
<g>
</g>
<g>
</g>
<g>
</g>
<g>
</g>
</svg>
