<?xml version="1.0" encoding="iso-8859-1"?>
<!-- Generator: Adobe Illustrator 19.0.0, SVG Export Plug-In . SVG Version: 6.00 Build 0)  -->
<svg version="1.1" id="Capa_1" xmlns="http://www.w3.org/2000/svg" xmlns:xlink="http://www.w3.org/1999/xlink" x="0px" y="0px"
	 viewBox="0 0 64.005 64.005" style="enable-background:new 0 0 64.005 64.005;" xml:space="preserve">
<g id="Diver">
	<path d="M63.669,55.196c-4.678-4.151-9.436-4.143-13.732,0.003c-3.809,3.407-7.322,3.411-11.114-0.04
		c-4.613-3.641-9.341-3.633-13.716,0.066c-3.941,3.813-7.131,3.818-11.074-0.057c-4.761-3.878-9.24-3.868-13.69,0.022
		c-0.416,0.364-0.458,0.996-0.095,1.411c0.364,0.416,0.996,0.456,1.411,0.095c3.697-3.231,7.123-3.224,11.041-0.04
		c2.311,2.273,4.597,3.406,6.886,3.406c2.276,0,4.556-1.12,6.862-3.354c3.608-3.05,7.253-3.044,11.082-0.025
		c4.458,4.06,9.209,4.061,13.769-0.02c3.599-3.472,7.107-3.465,11.043,0.028c0.412,0.365,1.045,0.33,1.412-0.084
		C64.119,56.195,64.082,55.563,63.669,55.196z"/>
	<path d="M18.189,15.466c0.159,0.2,0.388,0.331,0.641,0.368l11.149,1.61l4.965,7.084c-0.001,0.008-0.006,0.014-0.007,0.023
		l-1.339,12.603c-0.027,0.257,0.046,0.515,0.205,0.72l7.193,9.246c0.197,0.253,0.492,0.386,0.79,0.386
		c0.214,0,0.431-0.069,0.613-0.211c0.436-0.339,0.514-0.967,0.175-1.403l-6.945-8.927l1.057-9.95l3.808,5.433
		c0.074,0.105,0.175,0.172,0.275,0.239c-0.305,0.475-0.527,1.015-0.634,1.604c-0.435,2.409,1.173,4.723,3.582,5.158
		c0.266,0.048,0.529,0.071,0.79,0.071c2.105,0,3.98-1.508,4.368-3.651v0c0.435-2.41-1.173-4.723-3.582-5.158
		c-1.134-0.205-2.239,0.055-3.145,0.626c-0.007-0.011-0.008-0.025-0.016-0.036L31.369,15.942c-0.003-0.005-0.009-0.007-0.012-0.011
		c-0.049-0.067-0.115-0.117-0.179-0.17c-0.036-0.03-0.065-0.071-0.105-0.095c-0.039-0.024-0.087-0.031-0.13-0.05
		c-0.077-0.034-0.153-0.071-0.236-0.084c-0.005-0.001-0.009-0.004-0.014-0.005l-11.185-1.616l-7.62-9.59
		c-0.344-0.432-0.974-0.506-1.405-0.161c-0.433,0.343-0.505,0.972-0.161,1.405L18.189,15.466z M44.504,32.52
		c0.15,0,0.303,0.013,0.455,0.041c1.389,0.25,2.314,1.583,2.064,2.972c-0.251,1.388-1.581,2.317-2.973,2.063
		c-1.389-0.25-2.315-1.584-2.065-2.972C42.21,33.389,43.29,32.52,44.504,32.52z"/>
</g>
<g>
</g>
<g>
</g>
<g>
</g>
<g>
</g>
<g>
</g>
<g>
</g>
<g>
</g>
<g>
</g>
<g>
</g>
<g>
</g>
<g>
</g>
<g>
</g>
<g>
</g>
<g>
</g>
<g>
</g>
</svg>
