<?xml version="1.0" encoding="iso-8859-1"?>
<!-- Generator: Adobe Illustrator 19.0.0, SVG Export Plug-In . SVG Version: 6.00 Build 0)  -->
<svg version="1.1" id="Capa_1" xmlns="http://www.w3.org/2000/svg" xmlns:xlink="http://www.w3.org/1999/xlink" x="0px" y="0px"
	 viewBox="0 0 64.007 64.007" style="enable-background:new 0 0 64.007 64.007;" xml:space="preserve">
<g id="Diving">
	<path d="M20.949,38.836l1.84-3.003c0.697-1.138,1.911-1.817,3.246-1.817h0.455c1.372,0,2.621,0.696,3.342,1.864l1.823,2.947
		c1.076,1.742,2.941,2.781,4.988,2.781h8.515c4.111,0,7.456-3.346,7.456-7.458v-8.822c0-3.289-2.676-5.965-5.965-5.965H5.833
		c-3.214,0-5.83,2.614-5.83,5.828v8.843c0,4.176,3.397,7.574,7.574,7.574h8.42C18.002,41.607,19.899,40.546,20.949,38.836z
		 M15.998,39.607h-8.42c-3.073,0-5.574-2.5-5.574-5.574v-8.843c0-2.11,1.718-3.828,3.83-3.828H46.65
		c2.186,0,3.965,1.779,3.965,3.965v8.822c0,3.01-2.448,5.458-5.456,5.458h-8.515c-1.349,0-2.578-0.685-3.288-1.833l-1.824-2.947
		c-1.087-1.76-2.972-2.811-5.042-2.811h-0.455c-2.006,0-3.903,1.062-4.951,2.771l-1.84,3.003
		C18.556,38.911,17.312,39.607,15.998,39.607z"/>
	<path d="M63.003,0h-6.327c-0.552,0-1,0.448-1,1v42.17c0,1.669-0.466,2.975-1.384,3.882c-1.536,1.517-3.891,1.516-3.941,1.506
		h-15.45v-1.493c0-0.309-0.143-0.601-0.387-0.79L30.937,43.5c-2.722-2.116-6.528-2.116-9.254,0l-3.578,2.776
		c-0.244,0.189-0.387,0.481-0.387,0.79v11.788c0,0.309,0.143,0.601,0.387,0.79l3.578,2.778c1.362,1.057,2.995,1.585,4.627,1.585
		c1.632,0,3.265-0.529,4.627-1.586l3.578-2.777c0.244-0.189,0.387-0.481,0.387-0.79v-0.628h15.45c4.274,0,7.657-1.227,10.052-3.647
		c3.612-3.65,3.603-8.652,3.601-8.853V1C64.003,0.448,63.556,0,63.003,0z M62.003,2v6.636h-4.327V2H62.003z M32.901,58.364
		l-3.191,2.478c-2.001,1.554-4.798,1.553-6.8,0l-3.192-2.478V47.556l3.191-2.476c2.003-1.556,4.799-1.556,6.801,0l3.191,2.476v2.003
		v7.667V58.364z M58.981,53.171c-2.006,2.027-4.91,3.054-8.63,3.054h-15.45v-5.667h15.43c0.128,0.001,3.201,0.04,5.35-2.067
		c1.324-1.298,1.996-3.088,1.996-5.322V10.636h4.327v35.1C62.004,45.779,62.013,50.109,58.981,53.171z"/>
	<path d="M32.003,26.125h14c0.552,0,1-0.448,1-1c0-0.552-0.448-1-1-1h-14c-0.552,0-1,0.448-1,1
		C31.003,25.677,31.451,26.125,32.003,26.125z"/>
</g>
<g>
</g>
<g>
</g>
<g>
</g>
<g>
</g>
<g>
</g>
<g>
</g>
<g>
</g>
<g>
</g>
<g>
</g>
<g>
</g>
<g>
</g>
<g>
</g>
<g>
</g>
<g>
</g>
<g>
</g>
</svg>
