<?xml version="1.0" encoding="iso-8859-1"?>
<!-- Generator: Adobe Illustrator 19.0.0, SVG Export Plug-In . SVG Version: 6.00 Build 0)  -->
<svg version="1.1" id="Capa_1" xmlns="http://www.w3.org/2000/svg" xmlns:xlink="http://www.w3.org/1999/xlink" x="0px" y="0px"
	 viewBox="0 0 63.318 63.318" style="enable-background:new 0 0 63.318 63.318;" xml:space="preserve">
<g id="Golf">
	<path d="M7.775,55.404c-2.182,0-3.957,1.775-3.957,3.957c0,2.182,1.775,3.957,3.957,3.957c2.182,0,3.957-1.775,3.957-3.957
		C11.732,57.179,9.956,55.404,7.775,55.404z M7.775,61.404c-1.127,0-2.043-0.917-2.043-2.043c0-1.126,0.916-2.043,2.043-2.043
		c1.127,0,2.043,0.917,2.043,2.043C9.818,60.488,8.902,61.404,7.775,61.404z"/>
	<path d="M59.364,62.674c0.031-0.055,0.055-0.11,0.075-0.172c0.021-0.064,0.032-0.127,0.04-0.195
		c0.004-0.037,0.022-0.07,0.022-0.108c0-0.032-0.015-0.059-0.018-0.09c-0.003-0.03,0.007-0.058,0.001-0.088L56.72,46.843
		l-1.329-13.864c0-0.002,0-0.004,0-0.006l0-0.002c-0.001-0.014-0.01-0.025-0.012-0.039c-0.004-0.031-0.019-0.059-0.026-0.089
		c0.052-0.213,0.048-0.442-0.052-0.656L44.978,10.169c0.897-0.64,1.619-1.545,2.019-2.658c0.506-1.41,0.434-2.933-0.205-4.289
		c-0.639-1.356-1.768-2.382-3.177-2.888c-1.408-0.507-2.932-0.434-4.289,0.205c-1.356,0.639-2.382,1.767-2.89,3.177
		c-1.045,2.911,0.473,6.131,3.383,7.177c0.624,0.225,1.263,0.331,1.892,0.331c0.497,0,0.984-0.079,1.456-0.206l0.889,1.896
		l-8.456,8.341c-0.104,0.102-0.184,0.225-0.234,0.361l-4.161,11.099c-0.073,0.195-0.064,0.394-0.017,0.583l-6.273,22.195h-5.236
		c-1.025,0-1.99,0.451-2.648,1.239c-0.657,0.788-0.928,1.818-0.743,2.826c0.001,0.006,0.002,0.011,0.003,0.017
		c0.392,2.119,2.237,3.655,4.392,3.655h3.364c0.451,0,0.846-0.302,0.965-0.737l0.002-0.009c0.002-0.005,0.005-0.009,0.006-0.014
		l7.882-27.891c0.081,0.021,0.164,0.031,0.248,0.031c0.176,0,0.354-0.046,0.516-0.144l10.09-6.095
		c0.254-0.153,0.427-0.411,0.472-0.703l1.673-10.821l7.508,16.016L49.224,45.94c-0.041,0.126-0.056,0.259-0.044,0.391l1.293,14.867
		h-3.071c-0.553,0-1,0.448-1,1c0,0.552,0.447,1,1,1H58.5l0.001,0c0.059,0,0.118-0.005,0.178-0.016
		c0.038-0.007,0.066-0.03,0.102-0.041c0.066-0.02,0.127-0.042,0.186-0.074c0.057-0.03,0.107-0.065,0.156-0.105
		c0.05-0.041,0.094-0.083,0.135-0.132C59.299,62.781,59.333,62.73,59.364,62.674z M40.496,9.011
		c-1.873-0.674-2.85-2.746-2.177-4.619c0.326-0.907,0.986-1.633,1.859-2.044c0.489-0.231,1.013-0.347,1.538-0.347
		c0.411,0,0.824,0.071,1.222,0.214c0.001,0,0.001,0,0.001,0c0.906,0.326,1.632,0.986,2.043,1.858
		c0.411,0.873,0.458,1.853,0.132,2.76C44.442,8.707,42.366,9.681,40.496,9.011z M18.255,59.203
		c-0.001-0.006-0.002-0.012-0.003-0.017c-0.073-0.418,0.041-0.846,0.314-1.173c0.276-0.331,0.682-0.521,1.112-0.521h4.624
		l-1.02,3.737h-2.601C19.49,61.23,18.469,60.378,18.255,59.203z M42.323,26.902l-8.793,5.312l3.633-9.689l6.888-6.795L42.323,26.902
		z M51.19,46.358L53.865,38l0.876,9.117l2.561,14.082H52.48L51.19,46.358z"/>
</g>
<g>
</g>
<g>
</g>
<g>
</g>
<g>
</g>
<g>
</g>
<g>
</g>
<g>
</g>
<g>
</g>
<g>
</g>
<g>
</g>
<g>
</g>
<g>
</g>
<g>
</g>
<g>
</g>
<g>
</g>
</svg>
