<?xml version="1.0" encoding="iso-8859-1"?>
<!-- Generator: Adobe Illustrator 19.0.0, SVG Export Plug-In . SVG Version: 6.00 Build 0)  -->
<svg version="1.1" id="Capa_1" xmlns="http://www.w3.org/2000/svg" xmlns:xlink="http://www.w3.org/1999/xlink" x="0px" y="0px"
	 viewBox="0 0 64.001 64.001" style="enable-background:new 0 0 64.001 64.001;" xml:space="preserve">
<g id="Golf-stick">
	<path d="M47.266,0.036c-0.533-0.147-1.083,0.167-1.229,0.7L32.528,50.001h-12.82c-1.693,0-3.288,0.731-4.376,2.008
		c-1.093,1.284-1.544,2.964-1.238,4.61c0.795,4.278,4.586,7.382,9.015,7.382h6.551c0.053,0,0.102-0.017,0.153-0.025
		c0.063,0.013,0.127,0.026,0.19,0.026c0.438,0,0.842-0.292,0.964-0.736l17-62C48.111,0.733,47.798,0.182,47.266,0.036z
		 M23.108,62.001c-3.466,0-6.43-2.417-7.048-5.748c-0.195-1.051,0.095-2.125,0.794-2.948c0.707-0.829,1.747-1.305,2.854-1.305
		h11.977l-2.785,10H23.108z"/>
	<path d="M44.001,52.001c-3.309,0-6,2.691-6,6c0,3.309,2.691,6,6,6s6-2.692,6-6C50.001,54.692,47.31,52.001,44.001,52.001z
		 M44.001,62.001c-2.206,0-4-1.794-4-4c0-2.206,1.794-4,4-4c2.206,0,4,1.794,4,4C48.001,60.206,46.207,62.001,44.001,62.001z"/>
</g>
<g>
</g>
<g>
</g>
<g>
</g>
<g>
</g>
<g>
</g>
<g>
</g>
<g>
</g>
<g>
</g>
<g>
</g>
<g>
</g>
<g>
</g>
<g>
</g>
<g>
</g>
<g>
</g>
<g>
</g>
</svg>
