<?xml version="1.0" encoding="iso-8859-1"?>
<!-- Generator: Adobe Illustrator 19.0.0, SVG Export Plug-In . SVG Version: 6.00 Build 0)  -->
<svg version="1.1" id="Capa_1" xmlns="http://www.w3.org/2000/svg" xmlns:xlink="http://www.w3.org/1999/xlink" x="0px" y="0px"
	 viewBox="0 0 63.999 63.999" style="enable-background:new 0 0 63.999 63.999;" xml:space="preserve">
<g id="Hockey">
	<path d="M62.93,42.877c-0.903-1.003-2.247-1.518-3.598-1.379l-18.245,1.893L33.173,30.5L48.814,5.024
		c0.289-0.471,0.142-1.087-0.329-1.375c-0.473-0.292-1.087-0.142-1.375,0.329L32,28.589L16.889,3.977
		c-0.289-0.47-0.903-0.618-1.376-0.329c-0.47,0.289-0.618,0.905-0.329,1.375L30.826,30.5l-7.914,12.891L4.667,41.498
		c-1.347-0.14-2.695,0.375-3.598,1.379c-0.908,1.009-1.268,2.398-0.962,3.713c0.002,0.011,0.005,0.022,0.008,0.034
		c0.68,2.873,3.234,4.876,6.224,4.876h13.382c0.01,0,0.02-0.004,0.03-0.004c0.074-0.002,0.149-0.01,0.221-0.029
		c0.036-0.009,0.068-0.027,0.102-0.04c0.045-0.017,0.09-0.03,0.132-0.054c0.033-0.018,0.061-0.044,0.091-0.066
		c0.038-0.027,0.079-0.051,0.114-0.084c0.037-0.035,0.066-0.079,0.097-0.12c0.021-0.027,0.046-0.049,0.064-0.079L32,32.411
		l11.427,18.612c0.019,0.031,0.045,0.054,0.066,0.082c0.031,0.04,0.059,0.083,0.095,0.117c0.036,0.035,0.079,0.06,0.119,0.089
		c0.029,0.02,0.055,0.045,0.085,0.062c0.044,0.024,0.092,0.039,0.139,0.056c0.032,0.012,0.063,0.029,0.096,0.038
		c0.072,0.019,0.147,0.027,0.222,0.029c0.01,0,0.019,0.004,0.029,0.004h13.382c2.989,0,5.544-2.003,6.224-4.876
		c0.003-0.011,0.006-0.022,0.008-0.034C64.198,45.275,63.838,43.886,62.93,42.877z M2.056,46.143c-0.002-0.01-0.005-0.02-0.007-0.03
		c-0.147-0.673,0.042-1.38,0.507-1.898c0.476-0.53,1.181-0.806,1.905-0.728l17.267,1.792L19.159,49.5H6.338
		C4.275,49.5,2.514,48.12,2.056,46.143z M61.95,46.112c-0.002,0.01-0.005,0.02-0.007,0.03c-0.458,1.977-2.219,3.357-4.282,3.357
		H44.84l-2.569-4.221l17.267-1.792c0.718-0.075,1.429,0.198,1.905,0.727C61.908,44.732,62.097,45.44,61.95,46.112z"/>
	<path d="M32,52.5c-3.991,0-7,1.72-7,4c0,2.28,3.009,4,7,4c3.991,0,7-1.72,7-4C39,54.22,35.99,52.5,32,52.5z M32,58.5
		c-3.052,0-5-1.185-5-2c0-0.815,1.948-2,5-2c3.052,0,5,1.185,5,2C37,57.316,35.052,58.5,32,58.5z"/>
</g>
<g>
</g>
<g>
</g>
<g>
</g>
<g>
</g>
<g>
</g>
<g>
</g>
<g>
</g>
<g>
</g>
<g>
</g>
<g>
</g>
<g>
</g>
<g>
</g>
<g>
</g>
<g>
</g>
<g>
</g>
</svg>
