<?xml version="1.0" encoding="iso-8859-1"?>
<!-- Generator: Adobe Illustrator 19.0.0, SVG Export Plug-In . SVG Version: 6.00 Build 0)  -->
<svg version="1.1" id="Capa_1" xmlns="http://www.w3.org/2000/svg" xmlns:xlink="http://www.w3.org/1999/xlink" x="0px" y="0px"
	 viewBox="0 0 64 64" style="enable-background:new 0 0 64 64;" xml:space="preserve">
<g id="Kayak_1_">
	<path id="Kayak" d="M62.601,29.561c-0.889-0.753-2.052-1.076-3.208-0.883l-5.31,0.884c-1.136,0.19-2.028,0.984-2.384,2.02h-7.806
		c-0.081-17-5.089-30.258-11.471-30.258c-6.381,0-11.388,13.258-11.47,30.258h-8.649c-0.356-1.035-1.249-1.829-2.387-2.02
		l-5.309-0.884c-1.147-0.188-2.317,0.13-3.208,0.883C0.51,30.316,0,31.416,0,32.584c0,1.164,0.51,2.265,1.4,3.018
		c0.721,0.61,1.625,0.937,2.553,0.937c0.218,0,0.437-0.018,0.654-0.054l5.311-0.884c1.136-0.19,2.028-0.984,2.384-2.02h8.66
		c0.298,16.438,5.224,29.094,11.459,29.094c6.236,0,11.162-12.656,11.46-29.094h7.816c0.356,1.036,1.249,1.829,2.386,2.02
		l5.31,0.884c0.218,0.037,0.437,0.055,0.654,0.055c0.929,0,1.832-0.327,2.553-0.938C63.49,34.849,64,33.749,64,32.579
		C64,31.416,63.49,30.316,62.601,29.561z M32.422,3.324c5.527,0,9.392,14.804,9.471,28.258h-3.249
		c-0.268-5.947-2.903-10.474-6.222-10.474c-3.32,0-5.953,4.527-6.222,10.474h-3.248C23.031,18.127,26.896,3.324,32.422,3.324z
		 M28.199,31.582c0.248-5.042,2.337-8.474,4.223-8.474c1.887,0,3.976,3.432,4.224,8.474H28.199z M36.646,33.582
		c-0.248,5.042-2.337,8.474-4.224,8.474c-1.887,0-3.976-3.432-4.223-8.474H36.646z M9.589,33.629l-5.311,0.884H4.277
		c-0.565,0.094-1.144-0.065-1.585-0.436C2.252,33.704,2,33.16,2,32.579c0-0.575,0.253-1.119,0.691-1.492
		c0.357-0.302,0.805-0.464,1.264-0.464c0.107,0,0.216,0.009,0.323,0.027l5.31,0.884c0.514,0.086,0.887,0.527,0.887,1.048
		C10.475,33.103,10.102,33.543,9.589,33.629z M32.422,60.676c-5.367,0-9.168-13.965-9.454-27.094H26.2
		c0.268,5.948,2.902,10.474,6.222,10.474c3.32,0,5.954-4.527,6.222-10.474h3.233C41.591,46.711,37.79,60.676,32.422,60.676z
		 M61.308,34.076c-0.44,0.373-1.015,0.531-1.585,0.437c0,0,0,0-0.001,0l-5.309-0.884c-0.514-0.086-0.887-0.527-0.887-1.048
		c0-0.52,0.373-0.96,0.886-1.046l5.311-0.884c0.107-0.018,0.216-0.027,0.323-0.027c0.459,0,0.905,0.162,1.262,0.463
		C61.747,31.46,62,32.004,62,32.584C62,33.16,61.748,33.704,61.308,34.076z"/>
</g>
<g>
</g>
<g>
</g>
<g>
</g>
<g>
</g>
<g>
</g>
<g>
</g>
<g>
</g>
<g>
</g>
<g>
</g>
<g>
</g>
<g>
</g>
<g>
</g>
<g>
</g>
<g>
</g>
<g>
</g>
</svg>
