<?xml version="1.0" encoding="iso-8859-1"?>
<!-- Generator: Adobe Illustrator 19.0.0, SVG Export Plug-In . SVG Version: 6.00 Build 0)  -->
<svg version="1.1" id="Capa_1" xmlns="http://www.w3.org/2000/svg" xmlns:xlink="http://www.w3.org/1999/xlink" x="0px" y="0px"
	 viewBox="0 0 63 63" style="enable-background:new 0 0 63 63;" xml:space="preserve">
<g id="Star-medal">
	<path d="M40.645,16.886l-5.708-0.837l-2.53-5.469C32.244,10.226,31.89,10,31.5,10c-0.39,0-0.744,0.226-0.908,0.58l-2.53,5.469
		l-5.708,0.837c-0.373,0.055-0.684,0.314-0.803,0.671c-0.12,0.357-0.028,0.752,0.236,1.02l4.179,4.235l-1.015,6.021
		c-0.064,0.379,0.096,0.762,0.411,0.984c0.314,0.221,0.729,0.242,1.064,0.054l5.073-2.843l5.073,2.843
		C36.726,29.958,36.894,30,37.062,30c0.202,0,0.404-0.062,0.576-0.182c0.315-0.222,0.475-0.604,0.411-0.984l-1.015-6.021
		l4.179-4.235c0.265-0.268,0.356-0.663,0.236-1.02C41.329,17.201,41.018,16.941,40.645,16.886z M35.25,21.772
		c-0.226,0.229-0.328,0.552-0.274,0.868l0.753,4.466l-3.74-2.096c-0.152-0.085-0.32-0.128-0.489-0.128
		c-0.169,0-0.337,0.043-0.489,0.128l-3.74,2.096l0.753-4.466c0.053-0.316-0.049-0.64-0.274-0.868l-3.151-3.194l4.29-0.629
		c0.334-0.049,0.621-0.263,0.763-0.569l1.849-3.998l1.849,3.998c0.142,0.306,0.429,0.521,0.763,0.569l4.29,0.629L35.25,21.772z"/>
	<path d="M60.371,54.619L48.403,33.41C50.966,29.928,52.5,25.645,52.5,21c0-11.58-9.42-21-21-21s-21,9.42-21,21
		c0,4.644,1.534,8.927,4.096,12.408L2.629,54.619c-0.192,0.341-0.168,0.763,0.063,1.08c0.23,0.316,0.623,0.47,1.009,0.391
		l8.099-1.656l2.625,7.882c0.125,0.374,0.457,0.64,0.849,0.679C15.306,62.999,15.34,63,15.373,63c0.355,0,0.687-0.189,0.867-0.502
		l11.941-20.787C29.265,41.885,30.368,42,31.5,42c1.132,0,2.235-0.115,3.319-0.289L46.76,62.498C46.94,62.811,47.272,63,47.627,63
		c0.033,0,0.067-0.001,0.1-0.005c0.392-0.04,0.725-0.305,0.849-0.679l2.625-7.882L59.3,56.09c0.385,0.08,0.778-0.075,1.009-0.391
		C60.539,55.382,60.564,54.96,60.371,54.619z M15.617,59.568l-2.201-6.607c-0.16-0.48-0.653-0.768-1.149-0.664l-6.818,1.394
		l10.506-18.622c2.685,2.963,6.193,5.151,10.169,6.207L15.617,59.568z M12.5,21c0-10.477,8.523-19,19-19c10.476,0,19,8.523,19,19
		c0,10.476-8.523,19-19,19C21.023,40,12.5,31.476,12.5,21z M50.733,52.297c-0.495-0.104-0.989,0.184-1.149,0.664l-2.201,6.607
		L36.876,41.277c3.975-1.055,7.484-3.243,10.168-6.205l10.508,18.62L50.733,52.297z"/>
</g>
<g>
</g>
<g>
</g>
<g>
</g>
<g>
</g>
<g>
</g>
<g>
</g>
<g>
</g>
<g>
</g>
<g>
</g>
<g>
</g>
<g>
</g>
<g>
</g>
<g>
</g>
<g>
</g>
<g>
</g>
</svg>
