<?xml version="1.0" encoding="iso-8859-1"?>
<!-- Generator: Adobe Illustrator 19.0.0, SVG Export Plug-In . SVG Version: 6.00 Build 0)  -->
<svg version="1.1" id="Capa_1" xmlns="http://www.w3.org/2000/svg" xmlns:xlink="http://www.w3.org/1999/xlink" x="0px" y="0px"
	 viewBox="0 0 63.997 63.997" style="enable-background:new 0 0 63.997 63.997;" xml:space="preserve">
<g id="Champion-medal">
	<path d="M31.299,36.629c-4.687,0-8.5,3.813-8.5,8.5c0,4.687,3.813,8.5,8.5,8.5c4.686,0,8.499-3.813,8.499-8.5
		C39.798,40.442,35.985,36.629,31.299,36.629z M31.299,51.629c-3.584,0-6.5-2.916-6.5-6.5c0-3.584,2.916-6.5,6.5-6.5
		c3.584,0,6.499,2.916,6.499,6.5C37.798,48.713,34.883,51.629,31.299,51.629z"/>
	<path d="M62.526,8.693l-7.003-5.132c-0.031-0.023-0.069-0.028-0.102-0.047c-0.059-0.034-0.117-0.063-0.182-0.085
		c-0.066-0.021-0.13-0.033-0.197-0.04c-0.038-0.004-0.071-0.022-0.11-0.022H9.603c-0.097,0-0.184,0.029-0.272,0.055
		C9.043,3.34,8.727,3.371,8.468,3.561l-6.99,5.122c-1.609,1.179-1.958,3.448-0.779,5.058l17.25,23.54
		c-0.021,0.035-0.046,0.065-0.066,0.099c-1.399,2.428-1.434,5.457-0.14,7.75c-1.294,2.293-1.259,5.321,0.14,7.75
		c1.401,2.427,4.005,3.972,6.638,3.998c1.339,2.268,3.978,3.752,6.779,3.752c2.801,0,5.439-1.483,6.778-3.752
		c2.632-0.026,5.236-1.571,6.636-3.998c1.4-2.427,1.436-5.456,0.142-7.75c1.093-1.937,1.226-4.393,0.402-6.572
		c0.522-0.719,13.612-18.782,18.045-24.831C64.475,12.124,64.127,9.866,62.526,8.693z M38.945,33.453
		c-0.288-0.039-0.578-0.067-0.868-0.07c-0.457-0.775-1.075-1.449-1.79-2.013L55.144,5.764l2.945,2.158
		C56.824,9.537,43.216,27.736,38.95,33.443C38.948,33.446,38.948,33.449,38.945,33.453z M29.054,29.96l-9.593-13.089h25.02
		l-9.915,13.464c-1.012-0.448-2.123-0.706-3.267-0.706C30.529,29.629,29.776,29.751,29.054,29.96z M45.954,14.871H18.141
		c-0.045,0-0.083,0.02-0.127,0.025l-6.983-9.529h41.922L45.954,14.871z M8.843,5.765l18.329,25.011
		c-0.931,0.552-1.73,1.286-2.34,2.153C20.074,26.565,6.645,8.609,6.011,7.841L8.843,5.765z M2.66,10.296l1.758-1.289
		c0.025,0.041,0.036,0.087,0.068,0.125c0.49,0.593,12.764,16.996,18.361,24.482c-1.336,0.337-2.595,1.04-3.613,2.036L2.312,12.559
		C1.784,11.839,1.94,10.824,2.66,10.296z M42.856,45.706c1.213,1.719,1.264,4.2,0.125,6.174c-1.138,1.973-3.304,3.166-5.404,2.979
		c-0.421-0.043-0.822,0.191-1,0.577c-0.88,1.91-3.002,3.194-5.279,3.194c-2.277,0-4.399-1.284-5.279-3.194
		c-0.165-0.357-0.521-0.582-0.908-0.582c-0.031,0-0.061,0.002-0.092,0.004c-2.093,0.191-4.266-1.005-5.405-2.979
		c-1.138-1.975-1.087-4.456,0.126-6.173c0.244-0.346,0.244-0.808,0-1.154c-1.213-1.717-1.264-4.199-0.126-6.173
		c1.138-1.973,3.313-3.166,5.405-2.978c0.42,0.042,0.822-0.192,1-0.577c0.881-1.911,3.002-3.195,5.279-3.195
		c2.276,0,4.398,1.284,5.279,3.195c0.177,0.385,0.57,0.612,1,0.577c2.091-0.189,4.266,1.004,5.404,2.978
		c1.139,1.973,1.089,4.454-0.125,6.173C42.612,44.898,42.612,45.36,42.856,45.706z M61.689,12.544
		c-3.965,5.41-14.85,20.424-17.49,24.065c-0.841-1.131-1.955-2.018-3.197-2.572c5.425-7.256,18.122-24.226,18.674-24.9
		c0.01-0.011,0.012-0.025,0.021-0.037l1.647,1.207C62.056,10.828,62.21,11.832,61.689,12.544z"/>
</g>
<g>
</g>
<g>
</g>
<g>
</g>
<g>
</g>
<g>
</g>
<g>
</g>
<g>
</g>
<g>
</g>
<g>
</g>
<g>
</g>
<g>
</g>
<g>
</g>
<g>
</g>
<g>
</g>
<g>
</g>
</svg>
