<?xml version="1.0" encoding="iso-8859-1"?>
<!-- Generator: Adobe Illustrator 19.0.0, SVG Export Plug-In . SVG Version: 6.00 Build 0)  -->
<svg version="1.1" id="Capa_1" xmlns="http://www.w3.org/2000/svg" xmlns:xlink="http://www.w3.org/1999/xlink" x="0px" y="0px"
	 viewBox="0 0 64 64" style="enable-background:new 0 0 64 64;" xml:space="preserve">
<g id="Meditation_1_">
	<path id="Meditation" d="M63.6,24.741c-0.44-0.332-1.067-0.241-1.399,0.2l-1.889,2.519c-0.526,0.703-1.366,1.102-2.243,1.083
		c-0.877-0.024-1.692-0.475-2.18-1.206l-0.446-0.67c-0.307-0.46-0.93-0.584-1.387-0.278c-0.46,0.306-0.585,0.927-0.279,1.387
		l0.448,0.672c0.114,0.171,0.24,0.331,0.374,0.484l-11.4,7.125L33.142,19.148v-3.3c0-0.045-0.02-0.084-0.026-0.127
		c0.37-0.06,0.739-0.148,1.104-0.28c1.543-0.555,2.778-1.678,3.478-3.163c0.699-1.484,0.779-3.152,0.225-4.695
		c-1.146-3.188-4.673-4.848-7.858-3.703c-1.543,0.555-2.778,1.678-3.478,3.163c-0.699,1.484-0.779,3.152-0.225,4.695
		c0.782,2.174,2.672,3.635,4.806,3.983c-0.006,0.043-0.026,0.082-0.026,0.127v3.302L21.08,36.272L9.376,28.957
		c0.142-0.16,0.277-0.329,0.398-0.509l0.449-0.671c0.306-0.46,0.183-1.081-0.277-1.387c-0.46-0.306-1.08-0.182-1.387,0.277
		l-0.448,0.671c-0.487,0.731-1.301,1.181-2.179,1.206c-0.889,0.018-1.715-0.38-2.242-1.082l-1.89-2.52
		c-0.33-0.44-0.958-0.532-1.4-0.2c-0.442,0.331-0.531,0.958-0.2,1.4l1.889,2.519c0.89,1.186,2.29,1.883,3.767,1.883
		c0.043,0,0.087,0,0.131-0.002c0.561-0.015,1.106-0.133,1.614-0.336l13.29,8.307c0.16,0.1,0.345,0.152,0.53,0.152
		c0.08,0,0.159-0.009,0.238-0.029c0.262-0.064,0.487-0.232,0.624-0.464l8.857-15.073V45.05l-18.888-4.908
		c-0.47-0.124-0.952,0.106-1.156,0.542c-0.205,0.435-0.071,0.955,0.319,1.236l17.681,12.774l-2.823,4.234
		c-0.307,0.459-0.183,1.08,0.277,1.387c0.171,0.114,0.363,0.168,0.554,0.168c0.323,0,0.641-0.156,0.833-0.445l3.357-5.035
		c0.298-0.447,0.19-1.05-0.246-1.365L16.902,43.417l14.987,3.894c0.018,0.005,0.035-0.001,0.053,0.003
		c0.066,0.014,0.132,0.011,0.201,0.011c0.066,0,0.13,0.002,0.194-0.011c0.019-0.004,0.037,0.002,0.056-0.003l14.987-3.894
		L33.233,53.637c-0.436,0.315-0.544,0.918-0.246,1.365l3.357,5.035c0.192,0.289,0.51,0.445,0.833,0.445
		c0.19,0,0.384-0.054,0.554-0.168c0.46-0.307,0.584-0.927,0.277-1.387l-2.823-4.234l17.681-12.774
		c0.39-0.282,0.523-0.801,0.318-1.236c-0.205-0.436-0.688-0.666-1.156-0.542L33.142,45.05V23.06l8.86,14.897
		c0.138,0.231,0.362,0.397,0.624,0.46c0.077,0.019,0.156,0.028,0.235,0.028c0.186,0,0.37-0.052,0.53-0.152l12.966-8.104
		c0.52,0.213,1.08,0.336,1.656,0.352c0.044,0.001,0.088,0.002,0.132,0.002c1.477,0,2.877-0.698,3.767-1.884l1.889-2.519
		C64.132,25.699,64.042,25.072,63.6,24.741z M28.244,11.061c-0.374-1.04-0.32-2.165,0.151-3.167
		c0.472-1.001,1.304-1.759,2.344-2.133c0.462-0.166,0.934-0.244,1.397-0.244c1.699,0,3.296,1.053,3.902,2.742
		c0.374,1.04,0.32,2.165-0.151,3.167c-0.472,1.001-1.304,1.759-2.344,2.133C31.39,14.331,29.016,13.211,28.244,11.061z"/>
</g>
<g>
</g>
<g>
</g>
<g>
</g>
<g>
</g>
<g>
</g>
<g>
</g>
<g>
</g>
<g>
</g>
<g>
</g>
<g>
</g>
<g>
</g>
<g>
</g>
<g>
</g>
<g>
</g>
<g>
</g>
</svg>
