<?xml version="1.0" encoding="iso-8859-1"?>
<!-- Generator: Adobe Illustrator 19.0.0, SVG Export Plug-In . SVG Version: 6.00 Build 0)  -->
<svg version="1.1" id="Capa_1" xmlns="http://www.w3.org/2000/svg" xmlns:xlink="http://www.w3.org/1999/xlink" x="0px" y="0px"
	 viewBox="0 0 64 64" style="enable-background:new 0 0 64 64;" xml:space="preserve">
<g id="Skydiver">
	<path d="M32,0c-8.418,0-15.266,6.848-15.266,15.266c0,1.072,0.112,2.141,0.335,3.177c0.099,0.461,0.506,0.791,0.978,0.791h0.888
		c-0.012,0.122-0.006,0.247,0.029,0.371l2.191,7.67C21.281,27.714,21.681,28,22.116,28c0.092,0,0.184-0.013,0.275-0.039
		c0.531-0.152,0.839-0.705,0.688-1.236l-2.14-7.492h4.585c-0.009,0.086-0.024,0.171-0.009,0.261l1.096,6.575
		c0.081,0.489,0.505,0.836,0.985,0.836c0.055,0,0.109-0.004,0.165-0.014c0.545-0.091,0.913-0.606,0.822-1.151l-1.084-6.506h7.866
		L34.28,25.74c-0.091,0.545,0.277,1.06,0.822,1.151c0.056,0.009,0.11,0.014,0.165,0.014c0.48,0,0.904-0.347,0.985-0.836l1.096-6.575
		c0.015-0.089,0-0.175-0.009-0.261h4.585l-2.14,7.492c-0.151,0.531,0.156,1.084,0.688,1.236C40.563,27.988,40.655,28,40.747,28
		c0.435,0,0.835-0.287,0.961-0.726l2.191-7.67c0.035-0.125,0.041-0.25,0.029-0.371h2.025c0.472,0,0.88-0.33,0.977-0.792
		c0.223-1.041,0.335-2.109,0.335-3.176C47.266,6.848,40.417,0,32,0z M45.12,17.233H18.88c-0.098-0.648-0.146-1.307-0.146-1.967
		C18.734,7.951,24.685,2,32,2c7.315,0,13.267,5.951,13.267,13.266C45.266,15.924,45.217,16.583,45.12,17.233z"/>
	<path d="M39.526,29.725c-0.529-0.147-1.082,0.17-1.226,0.705l-1.924,7.141l-1.421-0.001v-0.073c0-0.552-0.447-1-1-1h-1.657v-0.062
		c0-0.065-0.025-0.123-0.037-0.185c1.844-0.438,3.224-2.088,3.224-4.063c0-2.309-1.878-4.187-4.187-4.187s-4.186,1.878-4.186,4.187
		c0,1.976,1.38,3.626,3.224,4.063c-0.012,0.062-0.037,0.119-0.037,0.185v0.062h-1.653c-0.553,0-1,0.448-1,1v0.065l-1.421-0.001
		L24.3,30.429c-0.145-0.534-0.692-0.846-1.227-0.705c-0.533,0.144-0.849,0.693-0.705,1.226l2.124,7.869
		c0.118,0.435,0.514,0.739,0.965,0.739l2.188,0.003v4.308c0,0.552,0.447,1,1,1h1.653v3.249c0,0.022,0.011,0.04,0.012,0.062h-0.075
		c-0.493,0-0.913,0.36-0.988,0.848l-2.124,13.82c-0.084,0.546,0.29,1.056,0.836,1.14c0.558,0.084,1.057-0.291,1.141-0.836
		l1.994-12.972h0.408l1.994,12.972C33.573,63.646,33.999,64,34.484,64c0.05,0,0.102-0.004,0.153-0.012
		c0.546-0.084,0.92-0.594,0.836-1.14l-2.124-13.82c-0.075-0.488-0.495-0.848-0.988-0.848h-0.075c0.001-0.022,0.013-0.04,0.013-0.062
		v-3.249h1.657c0.553,0,1-0.448,1-1v-4.3l2.186,0.002h0.001c0.452,0,0.848-0.303,0.966-0.74l2.124-7.882
		C40.375,30.417,40.06,29.868,39.526,29.725z M29.112,32.187c0-1.206,0.98-2.187,2.186-2.187c1.206,0,2.187,0.981,2.187,2.187
		c0,1.205-0.981,2.186-2.187,2.186C30.092,34.373,29.112,33.392,29.112,32.187z M29.645,42.869v-3.305l0.653,0.001v3.305H29.645z
		 M32.956,42.869h-0.657v-3.303l0.657,0.001V42.869z"/>
</g>
<g>
</g>
<g>
</g>
<g>
</g>
<g>
</g>
<g>
</g>
<g>
</g>
<g>
</g>
<g>
</g>
<g>
</g>
<g>
</g>
<g>
</g>
<g>
</g>
<g>
</g>
<g>
</g>
<g>
</g>
</svg>
