<?xml version="1.0" encoding="iso-8859-1"?>
<!-- Generator: Adobe Illustrator 19.0.0, SVG Export Plug-In . SVG Version: 6.00 Build 0)  -->
<svg version="1.1" id="Capa_1" xmlns="http://www.w3.org/2000/svg" xmlns:xlink="http://www.w3.org/1999/xlink" x="0px" y="0px"
	 viewBox="0 0 64 64" style="enable-background:new 0 0 64 64;" xml:space="preserve">
<g id="Snowboard">
	<path d="M60.821,5.149c-0.65-0.656-1.312-1.319-1.967-1.974c-2.142-2.142-5.101-3.298-8.139-3.165
		c-3.03,0.131-5.886,1.537-7.834,3.854C30.981,17.9,17.856,31.031,3.876,42.89c-2.32,1.949-3.727,4.804-3.858,7.832
		c-0.131,3.028,1.023,5.993,3.158,8.127c0.647,0.661,1.309,1.323,1.961,1.976C7.169,62.854,9.948,64,12.812,64
		c0.123,0,0.246-0.003,0.368-0.006c2.993-0.103,5.838-1.457,7.805-3.712c12.162-13.855,25.382-27.076,39.293-39.295
		c2.255-1.968,3.607-4.812,3.708-7.801C64.09,10.194,62.934,7.264,60.821,5.149z M19.479,58.964
		c-1.606,1.842-3.927,2.946-6.368,3.03c-2.452,0.081-4.833-0.859-6.561-2.585c-0.647-0.647-1.304-1.305-1.954-1.968
		c-1.747-1.746-2.688-4.164-2.582-6.633c0.107-2.469,1.254-4.797,3.15-6.39c1.047-0.888,2.079-1.797,3.116-2.7
		c0.008,0.008,0.01,0.019,0.018,0.027l14,14c0.01,0.01,0.023,0.013,0.033,0.022C21.379,56.831,20.42,57.892,19.479,58.964z
		 M23.661,54.278L9.793,40.41c10.446-9.195,20.378-19.088,29.643-29.529l13.762,13.762C42.883,34.037,32.987,43.966,23.661,54.278z
		 M58.961,19.48c-0.001,0.001-0.002,0.002-0.003,0.003c-1.434,1.26-2.856,2.537-4.275,3.817L40.757,9.374
		c1.227-1.399,2.45-2.801,3.653-4.219c1.591-1.893,3.92-3.04,6.392-3.147C50.928,2.003,51.055,2,51.181,2
		c2.338,0,4.601,0.932,6.259,2.59c0.652,0.653,1.313,1.313,1.963,1.97c1.727,1.728,2.668,4.117,2.585,6.557
		C61.905,15.556,60.802,17.875,58.961,19.48z"/>
	<path d="M36.007,32.037h-2.586l1.829-1.829c0.391-0.391,0.391-1.024,0-1.414c-0.391-0.391-1.024-0.391-1.414,0l-1.829,1.829v-2.585
		c0-0.552-0.448-1-1-1c-0.552,0-1,0.448-1,1v2.585l-1.829-1.829c-0.391-0.391-1.023-0.391-1.414,0c-0.391,0.391-0.391,1.023,0,1.414
		l1.829,1.829h-2.586c-0.552,0-1,0.448-1,1c0,0.552,0.448,1,1,1h2.586l-1.829,1.829c-0.391,0.391-0.391,1.023,0,1.414
		c0.195,0.195,0.451,0.293,0.707,0.293c0.256,0,0.512-0.098,0.707-0.293l1.829-1.829v2.587c0,0.552,0.448,1,1,1c0.552,0,1-0.448,1-1
		v-2.587l1.829,1.829c0.195,0.195,0.451,0.293,0.707,0.293c0.256,0,0.512-0.098,0.707-0.293c0.391-0.391,0.391-1.023,0-1.414
		l-1.829-1.829h2.586c0.552,0,1-0.448,1-1C37.007,32.485,36.559,32.037,36.007,32.037z"/>
</g>
<g>
</g>
<g>
</g>
<g>
</g>
<g>
</g>
<g>
</g>
<g>
</g>
<g>
</g>
<g>
</g>
<g>
</g>
<g>
</g>
<g>
</g>
<g>
</g>
<g>
</g>
<g>
</g>
<g>
</g>
</svg>
