<?xml version="1.0" encoding="iso-8859-1"?>
<!-- Generator: Adobe Illustrator 19.0.0, SVG Export Plug-In . SVG Version: 6.00 Build 0)  -->
<svg version="1.1" id="Capa_1" xmlns="http://www.w3.org/2000/svg" xmlns:xlink="http://www.w3.org/1999/xlink" x="0px" y="0px"
	 viewBox="0 0 64 64" style="enable-background:new 0 0 64 64;" xml:space="preserve">
<g id="Stopwatch">
	<path d="M50.036,17.092l3.152-3.152c0.073-0.073,0.118-0.16,0.164-0.246l2.069,2.069c0.195,0.195,0.45,0.292,0.705,0.292
		s0.51-0.097,0.705-0.292c0.39-0.39,0.39-1.021,0-1.41l-5.466-5.467c-0.39-0.39-1.021-0.39-1.41,0s-0.39,1.021,0,1.41l2.07,2.07
		c-0.086,0.046-0.174,0.091-0.246,0.164l-3.28,3.28c-3.437-2.673-7.534-4.531-12.003-5.286V7.148h2.868
		c0.551,0,0.997-0.447,0.997-0.997V0.997C40.36,0.447,39.914,0,39.363,0H25.192c-0.551,0-0.997,0.447-0.997,0.997v5.154
		c0,0.551,0.446,0.997,0.997,0.997h2.868v3.283C15.072,12.345,5.07,23.56,5.07,37.07C5.07,51.919,17.151,64,32,64
		c14.849,0,26.93-12.081,26.93-26.93C58.93,29.153,55.494,22.024,50.036,17.092z M26.189,1.995h12.176v3.159h-2.868h-6.441h-2.867
		V1.995z M30.054,7.148H34.5v3.113c-0.824-0.076-1.657-0.12-2.5-0.12c-0.655,0-1.302,0.032-1.946,0.078V7.148z M32,62.005
		c-13.749,0-24.935-11.186-24.935-24.935c0-12.79,9.68-23.356,22.098-24.769h5.674c12.418,1.413,22.098,11.979,22.098,24.769
		C56.935,50.819,45.749,62.005,32,62.005z"/>
	<path d="M32.997,34.261V18.015c0-0.551-0.446-0.997-0.997-0.997s-0.997,0.447-0.997,0.997v16.246
		c-1.159,0.413-1.995,1.509-1.995,2.809c0,1.652,1.34,2.993,2.992,2.993s2.992-1.341,2.992-2.993
		C34.992,35.77,34.157,34.674,32.997,34.261z"/>
</g>
<g>
</g>
<g>
</g>
<g>
</g>
<g>
</g>
<g>
</g>
<g>
</g>
<g>
</g>
<g>
</g>
<g>
</g>
<g>
</g>
<g>
</g>
<g>
</g>
<g>
</g>
<g>
</g>
<g>
</g>
</svg>
