<?xml version="1.0" encoding="iso-8859-1"?>
<!-- Generator: Adobe Illustrator 19.0.0, SVG Export Plug-In . SVG Version: 6.00 Build 0)  -->
<svg version="1.1" id="Capa_1" xmlns="http://www.w3.org/2000/svg" xmlns:xlink="http://www.w3.org/1999/xlink" x="0px" y="0px"
	 viewBox="0 0 64.002 64.002" style="enable-background:new 0 0 64.002 64.002;" xml:space="preserve">
<g id="Tennis">
	<path d="M62.192,14.726L62.192,14.726c-1.502-1.503-3.699-2.1-6.196-1.676c-2.366,0.402-4.733,1.688-6.666,3.621
		c-1.934,1.933-3.22,4.301-3.622,6.667c-0.361,2.125,0.025,4.033,1.076,5.482l-5.887,5.888l-8.917-5.573l-5.79-9.099l0.766-1.644
		c0.021-0.046,0.02-0.094,0.034-0.141c0.536,0.17,1.099,0.26,1.671,0.26c0.62,0,1.251-0.105,1.868-0.326
		c1.392-0.501,2.506-1.514,3.137-2.853c0.631-1.339,0.703-2.844,0.202-4.235c-0.5-1.392-1.514-2.506-2.853-3.137
		c-1.339-0.631-2.842-0.702-4.235-0.203c-1.392,0.5-2.506,1.513-3.137,2.852c-0.631,1.339-0.703,2.843-0.202,4.235
		c0.372,1.036,1.031,1.882,1.846,2.506c-0.051,0.063-0.109,0.12-0.144,0.197l-8.839,18.981c-0.08,0.101-0.141,0.22-0.177,0.352
		l-0.019,0.069l-0.164,0.351c-0.021,0.045-0.02,0.093-0.034,0.139c-0.021,0.072-0.047,0.142-0.052,0.216
		c-0.003,0.055,0.008,0.106,0.013,0.16l-2.79,10.228L0.336,59.373c-0.413,0.367-0.45,0.999-0.083,1.412
		C0.45,61.008,0.725,61.121,1,61.121c0.236,0,0.474-0.083,0.664-0.252l12.968-11.526c0.146-0.129,0.25-0.297,0.301-0.484
		l2.434-8.925l8.384,10.235l-5.474,10.947c-0.247,0.494-0.047,1.095,0.447,1.342c0.143,0.072,0.296,0.105,0.446,0.105
		c0.056,0,0.111-0.013,0.166-0.023c0.039,0.005,0.073,0.023,0.113,0.023h7.204c0.553,0,1-0.448,1-1c0-0.552-0.447-1-1-1H22.79
		l5.04-10.079c0.176-0.353,0.129-0.776-0.121-1.081l-9.688-11.826l6.473-13.899v9.068c0,0.464,0.319,0.867,0.771,0.973l13.449,3.174
		l-1.251,1.251c-0.391,0.391-0.391,1.023,0,1.414c0.195,0.195,0.451,0.293,0.707,0.293c0.256,0,0.512-0.098,0.707-0.293l2.125-2.125
		l0.77,0.182l0.483,0.302c0.165,0.103,0.349,0.152,0.529,0.152c0.333,0,0.659-0.167,0.849-0.47c0.035-0.055,0.043-0.117,0.066-0.175
		c0.072-0.102,0.13-0.215,0.161-0.343c0.127-0.537-0.206-1.076-0.744-1.203l-0.451-0.106l5.551-5.551
		c1.071,0.739,2.38,1.126,3.837,1.126c0.494,0,1.005-0.044,1.528-0.133c2.367-0.402,4.735-1.688,6.668-3.621
		c1.934-1.934,3.219-4.301,3.621-6.667C64.293,18.431,63.697,16.23,62.192,14.726z M25.525,11.497
		c0.395-0.836,1.09-1.468,1.958-1.78h0.001c0.381-0.137,0.776-0.206,1.17-0.206c0.503,0,1.004,0.111,1.474,0.333
		c0.836,0.394,1.468,1.089,1.78,1.958c0.312,0.868,0.268,1.807-0.126,2.643c-0.395,0.836-1.09,1.469-1.958,1.782
		c-1.793,0.644-3.78-0.291-4.425-2.086C25.087,13.272,25.132,12.333,25.525,11.497z M26.494,24.241l3.92,6.16
		c0.08,0.125,0.188,0.232,0.313,0.311l5.761,3.6l-9.994-2.359V24.241z M61.897,20.588c-0.333,1.961-1.421,3.946-3.063,5.588
		c-1.643,1.642-3.627,2.73-5.588,3.064c-1.835,0.31-3.416-0.086-4.448-1.119c-1.033-1.033-1.43-2.612-1.118-4.447
		c0.334-1.962,1.422-3.946,3.064-5.588c1.642-1.643,3.626-2.731,5.587-3.064c0.408-0.069,0.804-0.103,1.184-0.103
		c1.327,0,2.461,0.419,3.264,1.222v0C61.811,17.174,62.209,18.753,61.897,20.588z"/>
	<path d="M49.546,9.339c2.178,0,3.949-1.772,3.949-3.95s-1.771-3.95-3.949-3.95c-2.178,0-3.949,1.772-3.949,3.95
		S47.368,9.339,49.546,9.339z M49.546,3.339c1.131,0,2.051,0.919,2.051,2.05s-0.92,2.05-2.051,2.05c-1.131,0-2.051-0.919-2.051-2.05
		S48.415,3.339,49.546,3.339z"/>
</g>
<g>
</g>
<g>
</g>
<g>
</g>
<g>
</g>
<g>
</g>
<g>
</g>
<g>
</g>
<g>
</g>
<g>
</g>
<g>
</g>
<g>
</g>
<g>
</g>
<g>
</g>
<g>
</g>
<g>
</g>
</svg>
