<?xml version="1.0" encoding="iso-8859-1"?>
<!-- Generator: Adobe Illustrator 19.0.0, SVG Export Plug-In . SVG Version: 6.00 Build 0)  -->
<svg version="1.1" id="Capa_1" xmlns="http://www.w3.org/2000/svg" xmlns:xlink="http://www.w3.org/1999/xlink" x="0px" y="0px"
	 viewBox="0 0 64 64" style="enable-background:new 0 0 64 64;" xml:space="preserve">
<g id="Rod-squats_1_">
	<path id="Rod-squats" d="M63,11.167h-1v-1.5c0-0.552-0.448-1-1-1c-0.552,0-1,0.448-1,1v-1.5c0-0.552-0.448-1-1-1
		c-0.552,0-1,0.448-1,1v-1c0-0.552-0.448-1-1-1c-0.552,0-1,0.448-1,1v4h-6.01c0-0.412-0.246-0.797-0.656-0.942
		c-0.519-0.186-1.092,0.088-1.276,0.608l-0.118,0.334H16.061l-0.118-0.334c-0.184-0.521-0.758-0.796-1.276-0.608
		c-0.41,0.145-0.656,0.531-0.656,0.942H8v-4c0-0.552-0.448-1-1-1c-0.552,0-1,0.448-1,1v1c0-0.552-0.448-1-1-1c-0.552,0-1,0.448-1,1
		v1.5c0-0.552-0.448-1-1-1c-0.552,0-1,0.448-1,1v1.5H1c-0.552,0-1,0.448-1,1c0,0.552,0.448,1,1,1h1v1.5c0,0.552,0.448,1,1,1
		c0.552,0,1-0.448,1-1v1.5c0,0.552,0.448,1,1,1c0.552,0,1-0.448,1-1v1c0,0.552,0.448,1,1,1c0.552,0,1-0.448,1-1v-4h6.648
		l6.493,18.334c0.141,0.399,0.519,0.666,0.942,0.666H31v11.436l-10.658-3.876c-0.306-0.11-0.648-0.067-0.916,0.121
		C19.159,40.035,19,40.341,19,40.667v15.167h-4c-0.552,0-1,0.448-1,1c0,0.552,0.448,1,1,1h5c0.552,0,1-0.448,1-1
		c0-0.03-0.014-0.055-0.017-0.083C20.986,56.721,21,56.696,21,56.667V42.094l10.658,3.876c0.221,0.08,0.463,0.08,0.684,0L43,42.094
		v14.572c0,0.03,0.014,0.054,0.017,0.083C43.014,56.779,43,56.804,43,56.833c0,0.552,0.448,1,1,1h5c0.552,0,1-0.448,1-1
		c0-0.552-0.448-1-1-1h-4V40.667c0-0.326-0.159-0.632-0.426-0.819c-0.267-0.188-0.609-0.231-0.916-0.121L33,43.603V32.167h8.917
		c0.423,0,0.801-0.267,0.942-0.666l6.493-18.334H56v4c0,0.552,0.448,1,1,1c0.552,0,1-0.448,1-1v-1c0,0.552,0.448,1,1,1
		c0.552,0,1-0.448,1-1v-1.5c0,0.552,0.448,1,1,1c0.552,0,1-0.448,1-1v-1.5h1c0.552,0,1-0.448,1-1C64,11.614,63.552,11.167,63,11.167
		z M41.21,30.167H33v-2c0-0.035-0.016-0.065-0.02-0.099c2.289-0.457,4.02-2.479,4.02-4.901c0-2.757-2.243-5-5-5
		c-2.757,0-5,2.243-5,5c0,2.421,1.731,4.444,4.02,4.901C31.016,28.102,31,28.132,31,28.167v2h-8.21l-6.021-17h30.462L41.21,30.167z
		 M32,26.167c-1.654,0-3-1.346-3-3c0-1.654,1.346-3,3-3s3,1.346,3,3C35,24.821,33.654,26.167,32,26.167z"/>
</g>
<g>
</g>
<g>
</g>
<g>
</g>
<g>
</g>
<g>
</g>
<g>
</g>
<g>
</g>
<g>
</g>
<g>
</g>
<g>
</g>
<g>
</g>
<g>
</g>
<g>
</g>
<g>
</g>
<g>
</g>
</svg>
