<?xml version="1.0" encoding="iso-8859-1"?>
<!-- Generator: Adobe Illustrator 19.0.0, SVG Export Plug-In . SVG Version: 6.00 Build 0)  -->
<svg version="1.1" id="Capa_1" xmlns="http://www.w3.org/2000/svg" xmlns:xlink="http://www.w3.org/1999/xlink" x="0px" y="0px"
	 viewBox="0 0 64.002 64.002" style="enable-background:new 0 0 64.002 64.002;" xml:space="preserve">
<g id="Workout-tricep">
	<path d="M28.065,34.566l4.822-18.323l13.268,20.639c0.191,0.297,0.513,0.459,0.842,0.459c0.185,0,0.373-0.051,0.54-0.159
		c0.465-0.299,0.599-0.917,0.301-1.382l-14.26-22.183l0.707-2.684c0.216,0.087,0.426,0.184,0.654,0.246
		c0.491,0.131,0.988,0.196,1.482,0.196c0.985,0,1.957-0.258,2.832-0.764c2.715-1.567,3.649-5.052,2.083-7.768
		c-0.759-1.315-1.986-2.255-3.454-2.649c-1.467-0.394-3-0.192-4.315,0.567v0c-2.713,1.568-3.647,5.052-2.081,7.768
		c0.288,0.498,0.66,0.922,1.07,1.304c-0.039,0.071-0.086,0.136-0.107,0.218l-0.521,1.979c-0.064,0.005-0.125,0.016-0.188,0.033
		l-15.715-7.4c-0.305-0.143-0.661-0.124-0.946,0.051c-0.287,0.175-0.467,0.482-0.479,0.817l-0.677,18.577l-4.645,0.042L9.26,22.304
		c-0.005-0.549-0.452-0.991-1-0.991c-0.003,0-0.006,0-0.009,0c-0.552,0.005-0.996,0.457-0.991,1.009l0.05,5.698
		c0.005,0.549,0.452,0.991,1,0.991c0.003,0,0.006,0,0.009,0c0.552-0.005,0.996-0.456,0.991-1.009l-0.016-1.849l10.822-0.097
		l0.016,1.849c0.005,0.549,0.452,0.991,1,0.991c0.003,0,0.006,0,0.009,0c0.552-0.005,0.996-0.457,0.991-1.009l-0.05-5.698
		c-0.005-0.549-0.452-0.991-1-0.991c-0.003,0-0.006,0-0.009,0c-0.552,0.005-0.996,0.457-0.991,1.009l0.016,1.849l-4.174,0.037
		L16.543,7.12l14.441,6.8c0.137,0.064,0.281,0.088,0.424,0.088l-5.373,20.413c-0.013,0.048-0.003,0.095-0.008,0.143
		c-0.008,0.072-0.02,0.141-0.012,0.214c0.007,0.072,0.033,0.137,0.055,0.204c0.015,0.046,0.015,0.095,0.038,0.14l8.002,16.003
		L22.459,62.28c-0.003,0.002-0.003,0.006-0.006,0.008c-0.071,0.069-0.121,0.155-0.169,0.242c-0.015,0.028-0.041,0.05-0.053,0.079
		c-0.014,0.032-0.012,0.07-0.023,0.104c-0.028,0.091-0.055,0.183-0.056,0.278c0,0.004-0.002,0.007-0.002,0.011
		c0,0.047,0.021,0.088,0.027,0.134c0.011,0.081,0.017,0.161,0.048,0.238c0.031,0.078,0.083,0.142,0.132,0.209
		c0.026,0.036,0.039,0.078,0.071,0.111c0.002,0.002,0.006,0.003,0.008,0.006c0.093,0.095,0.202,0.172,0.326,0.225
		c0.124,0.052,0.255,0.078,0.387,0.078h6.665c0.552,0,1-0.448,1-1c0-0.552-0.448-1-1-1H25.64l10.385-9.941
		c0.317-0.303,0.399-0.777,0.203-1.169L28.065,34.566z M34.567,2.496c1.761-1.017,4.021-0.41,5.037,1.349
		c1.016,1.761,0.41,4.02-1.351,5.037c-0.851,0.491-1.843,0.623-2.796,0.367c-0.952-0.255-1.747-0.865-2.239-1.716
		C32.203,5.772,32.808,3.512,34.567,2.496z"/>
	<path d="M22.484,42.341c0-0.552-0.448-1-1-1H5.341c-0.552,0-1,0.448-1,1s0.448,1,1,1h7.071v19.661c0,0.552,0.448,1,1,1
		c0.552,0,1-0.448,1-1V43.341h7.071C22.036,43.341,22.484,42.893,22.484,42.341z"/>
	<path d="M58.661,41.341H39.647c-0.552,0-1,0.448-1,1s0.448,1,1,1h9.654v19.661c0,0.552,0.448,1,1,1c0.552,0,1-0.448,1-1V43.341
		h7.359c0.552,0,1-0.448,1-1S59.213,41.341,58.661,41.341z"/>
</g>
<g>
</g>
<g>
</g>
<g>
</g>
<g>
</g>
<g>
</g>
<g>
</g>
<g>
</g>
<g>
</g>
<g>
</g>
<g>
</g>
<g>
</g>
<g>
</g>
<g>
</g>
<g>
</g>
<g>
</g>
</svg>
