<?xml version="1.0" encoding="iso-8859-1"?>
<!-- Generator: Adobe Illustrator 19.0.0, SVG Export Plug-In . SVG Version: 6.00 Build 0)  -->
<svg version="1.1" id="Capa_1" xmlns="http://www.w3.org/2000/svg" xmlns:xlink="http://www.w3.org/1999/xlink" x="0px" y="0px"
	 viewBox="0 0 64 64" style="enable-background:new 0 0 64 64;" xml:space="preserve">
<g id="First-place">
	<path d="M58.729,19.434c5.132-0.499,5.27-4.165,5.271-4.205c0.01-0.544-0.417-0.985-0.961-1.007
		c-0.572-0.033-1.006,0.407-1.038,0.95c-0.005,0.085-0.16,1.854-3.211,2.243c0.023-1.438,0.009-3.184-0.083-5.233
		c5.155-0.489,5.292-4.167,5.293-4.207c0.01-0.544-0.417-0.985-0.961-1.007c-0.572-0.02-1.006,0.407-1.038,0.95
		c-0.005,0.086-0.169,1.926-3.406,2.263c-0.022-0.335-0.042-0.667-0.068-1.015c-0.041-0.551-0.535-0.971-1.071-0.923
		c-0.551,0.041-0.964,0.52-0.923,1.071c0.022,0.302,0.04,0.589,0.059,0.881c-3.364-0.301-3.529-2.188-3.534-2.257
		c-0.01-0.552-0.438-0.971-1.019-0.981c-0.552,0.011-0.991,0.467-0.981,1.019c0.001,0.04,0.153,3.873,5.647,4.228
		c0.093,2.068,0.105,3.828,0.079,5.266c-3.558-0.242-3.721-2.206-3.726-2.277c-0.01-0.552-0.48-0.995-1.019-0.981
		c-0.552,0.011-0.991,0.467-0.981,1.019c0.001,0.041,0.154,3.88,5.662,4.229c-0.077,1.578-0.184,2.442-0.189,2.496
		c-0.003,0.057-0.063,1.033-0.297,2.614c-3.019-0.397-3.172-2.152-3.176-2.219c-0.01-0.552-0.438-0.962-1.019-0.981
		c-0.552,0.011-0.991,0.467-0.981,1.019c0.001,0.038,0.142,3.486,4.842,4.146c-0.281,1.472-0.686,3.219-1.261,5.124
		c-3.43-0.813-3.28-2.762-3.273-2.832c0.078-0.547-0.302-1.053-0.849-1.131c-0.541-0.069-1.053,0.302-1.131,0.849
		c-0.006,0.04-0.465,3.734,4.635,5.022c-0.565,1.628-1.259,3.333-2.101,5.054c-2.731-1.027-2.512-2.723-2.503-2.788
		c0.106-0.542-0.248-1.067-0.79-1.173c-0.544-0.106-1.067,0.247-1.173,0.79c-0.007,0.037-0.575,3.279,3.538,4.95
		c-0.878,1.592-1.893,3.173-3.068,4.699c-2.831-1.875-2.072-3.618-2.043-3.682c0.255-0.49,0.064-1.094-0.426-1.348
		c-0.492-0.256-1.094-0.064-1.348,0.426c-0.018,0.035-1.622,3.279,2.546,6.155c-3.516,4.04-8.271,7.51-14.708,9.37
		c-5.845-1.667-10.748-4.778-14.674-9.314c4.27-2.889,2.641-6.176,2.622-6.211c-0.25-0.483-0.836-0.666-1.325-0.426
		c-0.488,0.241-0.689,0.837-0.458,1.33c0.037,0.081,0.816,1.856-2.107,3.75c-1.108-1.449-2.13-3.022-3.062-4.725
		c4.183-1.663,3.613-4.938,3.606-4.975c-0.104-0.534-0.614-0.877-1.15-0.783c-0.536,0.093-0.898,0.608-0.816,1.146
		c0.012,0.083,0.233,1.806-2.566,2.83c-0.835-1.722-1.523-3.432-2.082-5.068c5.146-1.278,4.687-4.992,4.681-5.032
		c-0.079-0.548-0.59-0.928-1.131-0.849c-0.547,0.078-0.927,0.584-0.849,1.131c0.003,0.022,0.241,2.02-3.311,2.842
		c-0.564-1.904-0.96-3.653-1.237-5.132c4.712-0.655,4.854-4.109,4.855-4.147c0.01-0.544-0.417-0.985-0.961-1.007
		c-0.563-0.031-1.006,0.407-1.038,0.95c-0.005,0.084-0.158,1.843-3.183,2.24c-0.236-1.629-0.295-2.641-0.298-2.697
		c-0.003-0.019-0.108-0.856-0.184-2.414c5.51-0.349,5.663-4.189,5.664-4.229c0.01-0.544-0.417-0.985-0.961-1.007
		c-0.563-0.033-1.006,0.407-1.038,0.95c-0.006,0.089-0.169,2.055-3.728,2.297c-0.025-1.434-0.013-3.194,0.08-5.266
		c5.494-0.355,5.646-4.188,5.647-4.228c0.01-0.552-0.429-1.008-0.981-1.019c-0.565,0.02-1.008,0.429-1.019,0.981
		c-0.001,0.021-0.088,1.956-3.534,2.258c0.019-0.292,0.037-0.58,0.059-0.882c0.041-0.551-0.373-1.03-0.923-1.071
		C5.999,8.194,5.513,8.613,5.473,9.164c-0.026,0.348-0.046,0.68-0.068,1.015C2.196,9.845,2.008,8.035,2,7.92
		C1.98,7.375,1.544,6.93,0.981,6.955C0.429,6.966-0.01,7.422,0,7.974c0.001,0.04,0.138,3.718,5.293,4.207
		c-0.092,2.052-0.106,3.799-0.083,5.234C2.186,17.03,2.007,15.288,2,15.175c-0.019-0.544-0.464-0.976-1.019-0.964
		C0.429,14.221-0.01,14.677,0,15.23c0.001,0.04,0.139,3.705,5.27,4.205c0.078,1.671,0.193,2.569,0.201,2.617
		c0.003,0.058,0.059,1.011,0.286,2.576C2.201,24.397,2.008,22.453,2,22.333c-0.02-0.545-0.456-0.967-1.019-0.964
		C0.429,21.379-0.01,21.835,0,22.387c0.001,0.042,0.163,4.076,6.091,4.248c0.282,1.512,0.694,3.32,1.278,5.298
		c-3.082,0.119-3.539-1.586-3.564-1.696c-0.106-0.534-0.623-0.89-1.159-0.789c-0.543,0.099-0.904,0.619-0.806,1.162
		c0.007,0.038,0.664,3.333,5.223,3.333c0.292,0,0.602-0.016,0.926-0.044c0.569,1.679,1.261,3.441,2.11,5.226
		c-3.615,0.572-4.229-1.32-4.262-1.437c-0.133-0.528-0.668-0.856-1.198-0.729c-0.538,0.126-0.872,0.664-0.746,1.202
		c0.008,0.036,0.776,3.076,4.932,3.076c0.65,0,1.388-0.079,2.215-0.251c0.917,1.712,1.982,3.422,3.221,5.072
		c-2.928,1.191-3.945-0.288-4.008-0.386c-0.277-0.469-0.881-0.631-1.355-0.36c-0.48,0.273-0.648,0.883-0.375,1.363
		c0.015,0.026,1.094,1.852,3.689,1.852c0.913,0,2.026-0.25,3.333-0.86c3.155,3.731,7.301,7.025,12.719,9.183
		c-2.229,0.392-4.612,0.626-7.206,0.626c-0.552,0-1,0.448-1,1c0,0.552,0.448,1,1,1c4.08,0,7.699-0.514,10.942-1.392
		c3.242,0.878,6.861,1.392,10.941,1.392c0.552,0,1-0.448,1-1c0-0.552-0.448-1-1-1c-2.551,0-4.973-0.203-7.272-0.598
		c5.453-2.157,9.619-5.465,12.787-9.21c1.307,0.609,2.419,0.859,3.332,0.859c2.594,0,3.674-1.826,3.688-1.852
		c0.269-0.473,0.104-1.065-0.363-1.343c-0.467-0.28-1.078-0.123-1.366,0.338c-0.045,0.072-1.052,1.589-4.006,0.39
		c1.241-1.65,2.306-3.36,3.223-5.072c0.825,0.171,1.561,0.25,2.211,0.25c4.156,0,4.924-3.041,4.932-3.076
		c0.126-0.538-0.208-1.076-0.746-1.202c-0.535-0.128-1.076,0.207-1.202,0.746c-0.005,0.021-0.525,2.012-4.255,1.421
		c0.85-1.785,1.542-3.547,2.11-5.225c0.323,0.029,0.631,0.044,0.922,0.044c4.559,0,5.215-3.296,5.222-3.333
		c0.097-0.535-0.254-1.039-0.788-1.147c-0.535-0.109-1.058,0.241-1.177,0.772c-0.018,0.083-0.455,1.816-3.56,1.698
		c0.584-1.982,0.995-3.79,1.277-5.298c5.925-0.173,6.087-4.206,6.088-4.247c0.01-0.544-0.417-0.985-0.961-1.007
		c-0.572-0.031-1.006,0.407-1.038,0.95c-0.006,0.09-0.171,2.064-3.755,2.298c0.219-1.524,0.274-2.449,0.276-2.494
		C58.533,22.05,58.651,21.126,58.729,19.434z"/>
	<path d="M27.099,11.554c0.467,0.293,1.085,0.15,1.378-0.317l2.948-4.711h0.068v25.556H29.25c-0.552,0-1,0.448-1,1
		c0,0.552,0.448,1,1,1h6.484c0.552,0,1-0.448,1-1c0-0.552-0.448-1-1-1h-2.241V5.526c0-0.552-0.448-1-1-1h-1.622
		c-0.345,0-0.665,0.177-0.848,0.47l-3.242,5.181C26.488,10.644,26.63,11.261,27.099,11.554z"/>
</g>
<g>
</g>
<g>
</g>
<g>
</g>
<g>
</g>
<g>
</g>
<g>
</g>
<g>
</g>
<g>
</g>
<g>
</g>
<g>
</g>
<g>
</g>
<g>
</g>
<g>
</g>
<g>
</g>
<g>
</g>
</svg>
