<?xml version="1.0" encoding="iso-8859-1"?>
<!-- Generator: Adobe Illustrator 19.0.0, SVG Export Plug-In . SVG Version: 6.00 Build 0)  -->
<svg version="1.1" id="Capa_1" xmlns="http://www.w3.org/2000/svg" xmlns:xlink="http://www.w3.org/1999/xlink" x="0px" y="0px"
	 viewBox="0 0 64 64" style="enable-background:new 0 0 64 64;" xml:space="preserve">
<g id="Small-arms_1_">
	<path id="Small-arms" d="M63.735,32.665c0.063-0.07,0.115-0.147,0.156-0.232c0.014-0.029,0.027-0.057,0.039-0.088
		C63.971,32.236,64,32.121,64,32c0-0.121-0.029-0.236-0.07-0.346c-0.012-0.031-0.025-0.059-0.039-0.088
		c-0.041-0.084-0.093-0.162-0.156-0.231c-0.015-0.017-0.026-0.036-0.042-0.051c-0.072-0.07-0.153-0.131-0.246-0.178l-5.392-2.695
		c-0.495-0.248-1.096-0.046-1.342,0.447c-0.247,0.494-0.047,1.095,0.447,1.342L58.763,31h-6.929
		c-0.171-4.576-1.497-9.024-3.892-12.919c-4.886-7.946-13.365-12.69-22.682-12.69c-0.376,0-0.721,0.211-0.892,0.546
		C18.834,16.82,14.759,28.154,13.765,31h-3.443l-3.75-3.75c-0.391-0.391-1.023-0.391-1.414,0c-0.391,0.391-0.391,1.023,0,1.414
		L7.493,31H5.457l-3.75-3.75c-0.391-0.391-1.023-0.391-1.414,0c-0.391,0.391-0.391,1.023,0,1.414L3.629,32l-3.336,3.336
		c-0.391,0.391-0.391,1.023,0,1.414C0.488,36.946,0.744,37.043,1,37.043c0.256,0,0.512-0.098,0.707-0.293L5.457,33h2.036
		l-2.336,2.336c-0.391,0.391-0.391,1.023,0,1.414c0.195,0.195,0.451,0.293,0.707,0.293c0.256,0,0.512-0.098,0.707-0.293l3.75-3.75
		h3.444c0.989,2.821,5.027,14.011,10.603,25.059c0.17,0.337,0.516,0.549,0.893,0.549c9.316,0,17.796-4.744,22.682-12.69
		c2.395-3.895,3.721-8.342,3.892-12.919h6.929l-1.603,0.801c-0.494,0.247-0.694,0.848-0.447,1.342
		c0.176,0.351,0.528,0.553,0.896,0.553c0.15,0,0.303-0.034,0.446-0.106l5.392-2.696c0.093-0.046,0.174-0.108,0.246-0.178
		C63.709,32.701,63.72,32.682,63.735,32.665z M25.872,7.399c8.375,0.202,15.955,4.555,20.367,11.731
		c2.201,3.579,3.426,7.665,3.596,11.871H15.886C17.138,27.468,20.879,17.314,25.872,7.399z M46.239,44.871
		c-4.412,7.175-11.99,11.528-20.365,11.73C20.849,46.547,17.136,36.507,15.887,33h33.947C49.665,37.206,48.44,41.292,46.239,44.871z
		"/>
</g>
<g>
</g>
<g>
</g>
<g>
</g>
<g>
</g>
<g>
</g>
<g>
</g>
<g>
</g>
<g>
</g>
<g>
</g>
<g>
</g>
<g>
</g>
<g>
</g>
<g>
</g>
<g>
</g>
<g>
</g>
</svg>
