<?xml version="1.0" encoding="iso-8859-1"?>
<!-- Generator: Adobe Illustrator 19.0.0, SVG Export Plug-In . SVG Version: 6.00 Build 0)  -->
<svg version="1.1" id="Capa_1" xmlns="http://www.w3.org/2000/svg" xmlns:xlink="http://www.w3.org/1999/xlink" x="0px" y="0px"
	 viewBox="0 0 64.001 64.001" style="enable-background:new 0 0 64.001 64.001;" xml:space="preserve">
<g id="Bycicle">
	<path d="M50.197,25.879c-1.425,0-2.801,0.217-4.095,0.62l-1.808-6.028l2.272-7.956h7.408c0.155,0.893,0.278,2.429-0.445,3.407
		c-0.495,0.669-1.345,0.995-2.596,0.995c-0.553,0-1,0.448-1,1c0,0.552,0.447,1,1,1c1.902,0,3.316-0.607,4.203-1.806
		c1.675-2.263,0.639-5.742,0.594-5.889c-0.128-0.42-0.517-0.708-0.956-0.708h-8.962c-0.446,0-0.839,0.296-0.962,0.725l-2.354,8.237
		H18.399l-0.892-3.122h3.338c1.61,0,2.921-1.31,2.921-2.92c0-1.61-1.31-2.921-2.921-2.921h-8.963c-1.61,0-2.92,1.31-2.92,2.921
		c0,1.61,1.31,2.92,2.92,2.92h3.544l1.19,4.164l-1.095,5.478c-0.564-0.071-1.135-0.119-1.717-0.119C6.192,25.879,0,32.071,0,39.683
		c0,7.611,6.192,13.803,13.804,13.803s13.804-6.192,13.804-13.803c0-6.336-4.297-11.675-10.126-13.29l0.983-4.914h24.044
		l1.732,5.773c-4.633,2.229-7.845,6.956-7.845,12.432c0,7.611,6.191,13.803,13.803,13.803c7.611,0,13.804-6.192,13.804-13.803
		C64.001,32.071,57.809,25.879,50.197,25.879z M10.963,13.436c0-0.507,0.413-0.921,0.92-0.921h8.963
		c0.508,0,0.921,0.413,0.921,0.921c0,0.507-0.413,0.92-0.921,0.92h-8.963C11.376,14.356,10.963,13.943,10.963,13.436z
		 M25.607,39.683c0,6.508-5.295,11.803-11.804,11.803S2,46.191,2,39.683s5.295-11.803,11.804-11.803c0.448,0,0.889,0.03,1.325,0.079
		l-2.306,11.528c-0.108,0.542,0.243,1.068,0.784,1.177c0.066,0.013,0.132,0.019,0.197,0.019c0.467,0,0.885-0.329,0.979-0.804
		l2.305-11.525C22.002,29.781,25.607,34.315,25.607,39.683z M50.197,51.486c-6.508,0-11.803-5.295-11.803-11.803
		c0-4.571,2.617-8.535,6.426-10.495l1.314,4.38c0.017,0.055,0.038,0.109,0.063,0.16l2.561,5.122
		c0.246,0.494,0.848,0.694,1.342,0.447c0.494-0.247,0.694-0.848,0.447-1.342l-2.523-5.044l-1.348-4.495
		c1.112-0.348,2.294-0.537,3.52-0.537c6.509,0,11.804,5.295,11.804,11.803S56.706,51.486,50.197,51.486z"/>
	<path d="M57.389,38.684c-0.563-0.031-1.022,0.395-1.052,0.946c-0.118,2.234-0.89,4.032-2.233,5.2
		c-1.386,1.206-3.341,1.736-5.645,1.538c-0.566-0.063-1.035,0.36-1.082,0.91c-0.048,0.55,0.359,1.035,0.91,1.082
		c0.376,0.033,0.744,0.049,1.105,0.049c2.39,0,4.456-0.707,6.023-2.07c1.762-1.532,2.771-3.816,2.919-6.604
		C58.363,39.184,57.94,38.713,57.389,38.684z"/>
	<path d="M9.354,44.83c-1.343-1.168-2.115-2.966-2.232-5.2c-0.029-0.551-0.519-0.978-1.052-0.946
		c-0.552,0.029-0.975,0.5-0.946,1.051c0.147,2.788,1.156,5.071,2.917,6.604c1.568,1.364,3.634,2.07,6.024,2.07
		c0.361,0,0.73-0.016,1.105-0.049c0.551-0.047,0.958-0.532,0.91-1.082c-0.048-0.55-0.529-0.972-1.082-0.91
		C12.69,46.566,10.739,46.035,9.354,44.83z"/>
</g>
<g>
</g>
<g>
</g>
<g>
</g>
<g>
</g>
<g>
</g>
<g>
</g>
<g>
</g>
<g>
</g>
<g>
</g>
<g>
</g>
<g>
</g>
<g>
</g>
<g>
</g>
<g>
</g>
<g>
</g>
</svg>
