<?xml version="1.0" encoding="iso-8859-1"?>
<!-- Generator: Adobe Illustrator 19.0.0, SVG Export Plug-In . SVG Version: 6.00 Build 0)  -->
<svg version="1.1" id="Capa_1" xmlns="http://www.w3.org/2000/svg" xmlns:xlink="http://www.w3.org/1999/xlink" x="0px" y="0px"
	 viewBox="0 0 64 64" style="enable-background:new 0 0 64 64;" xml:space="preserve">
<g id="Binocular_1_">
	<path id="Binocular" d="M63,52.971h-1.966l-5.273-21.093v-20.85H57.3c0.553,0,1-0.447,1-1c0-0.553-0.447-1-1-1h-2.539H43.775
		h-2.539c-0.553,0-1,0.447-1,1c0,0.553,0.447,1,1,1h1.539v7.612H21.225v-7.612h1.746c0.553,0,1-0.447,1-1c0-0.553-0.447-1-1-1
		h-2.746H9.239H6.492c-0.553,0-1,0.447-1,1c0,0.553,0.447,1,1,1h1.747v20.85L2.966,52.971H1c-0.553,0-1,0.447-1,1
		c0,0.553,0.447,1,1,1h2.746h21.971h2.746c0.553,0,1-0.447,1-1c0-0.553-0.447-1-1-1h-1.966l-5.272-21.093V28.88h9.672v1.746
		c0,0.553,0.447,1,1,1c0.553,0,1-0.447,1-1V28.88h9.879v2.998l-5.272,21.093h-1.967c-0.553,0-1,0.447-1,1c0,0.553,0.447,1,1,1h2.747
		h21.971H63c0.553,0,1-0.447,1-1C64,53.418,63.553,52.971,63,52.971z M19.225,11.029v8.612v8.239v3.119h-8.985V11.029H19.225z
		 M5.027,52.971L10.021,33h9.423l4.993,19.972H5.027z M21.225,26.88v-6.239h9.672v6.239H21.225z M42.568,26.88h-9.672v-6.239h9.672
		V26.88z M53.761,11.029v19.971h-8.985V11.029H53.761z M39.563,52.971L44.557,33h9.423l4.993,19.972H39.563z"/>
</g>
<g>
</g>
<g>
</g>
<g>
</g>
<g>
</g>
<g>
</g>
<g>
</g>
<g>
</g>
<g>
</g>
<g>
</g>
<g>
</g>
<g>
</g>
<g>
</g>
<g>
</g>
<g>
</g>
<g>
</g>
</svg>
