<?xml version="1.0" encoding="iso-8859-1"?>
<!-- Generator: Adobe Illustrator 19.0.0, SVG Export Plug-In . SVG Version: 6.00 Build 0)  -->
<svg version="1.1" id="Capa_1" xmlns="http://www.w3.org/2000/svg" xmlns:xlink="http://www.w3.org/1999/xlink" x="0px" y="0px"
	 viewBox="0 0 64 64" style="enable-background:new 0 0 64 64;" xml:space="preserve">
<g id="Bowling-ball">
	<path d="M32,0C14.355,0,0,14.355,0,32s14.355,32,32,32s32-14.355,32-32S49.645,0,32,0z M32,62C15.458,62,2,48.542,2,32
		S15.458,2,32,2s30,13.458,30,30S48.542,62,32,62z"/>
	<path d="M28.08,13.929c-0.311-1.161-1.055-2.131-2.096-2.732c-1.041-0.601-2.253-0.759-3.414-0.45
		c-1.16,0.31-2.13,1.055-2.732,2.097c-0.601,1.042-0.761,2.254-0.45,3.413c0.31,1.16,1.055,2.13,2.097,2.732
		c0.694,0.4,1.463,0.605,2.243,0.605c0.391,0,0.784-0.051,1.171-0.155c1.16-0.311,2.13-1.055,2.732-2.096
		C28.231,16.301,28.391,15.088,28.08,13.929z M25.898,16.342c-0.334,0.578-0.872,0.992-1.517,1.164
		c-0.644,0.172-1.318,0.083-1.896-0.25c-0.578-0.334-0.992-0.872-1.164-1.517c-0.173-0.644-0.084-1.317,0.25-1.896
		c0.334-0.578,0.873-0.992,1.517-1.164l0.001-0.001c0.215-0.058,0.433-0.086,0.65-0.086c0.433,0,0.861,0.113,1.246,0.336
		c0.579,0.334,0.992,0.873,1.164,1.518C26.321,15.09,26.232,15.764,25.898,16.342z"/>
	<path d="M36.024,25.447c0.362-1.147,0.256-2.366-0.299-3.431c-0.554-1.065-1.49-1.851-2.637-2.213
		c-1.146-0.362-2.365-0.256-3.43,0.299c-1.066,0.554-1.853,1.49-2.214,2.637c-0.362,1.147-0.256,2.365,0.299,3.43
		c0.554,1.066,1.49,1.853,2.637,2.214c0.447,0.141,0.905,0.211,1.36,0.211c0.713,0,1.42-0.171,2.07-0.51
		C34.876,27.53,35.662,26.594,36.024,25.447z M32.887,26.309c-0.591,0.308-1.269,0.368-1.905,0.166
		c-0.637-0.201-1.157-0.638-1.465-1.23c-0.308-0.591-0.367-1.268-0.165-1.905c0.201-0.637,0.638-1.157,1.23-1.465
		c0.361-0.188,0.753-0.283,1.149-0.283c0.253,0,0.508,0.039,0.756,0.117c0.637,0.201,1.157,0.638,1.465,1.229c0,0,0,0,0,0
		c0.309,0.592,0.367,1.269,0.166,1.906C33.916,25.482,33.479,26.001,32.887,26.309z"/>
	<path d="M34.484,16.989c0.693,0.4,1.463,0.605,2.243,0.605c0.391,0,0.784-0.051,1.172-0.155c2.396-0.643,3.823-3.116,3.181-5.511
		c-0.311-1.161-1.055-2.131-2.096-2.732c-1.041-0.601-2.253-0.761-3.415-0.45c-2.396,0.643-3.823,3.116-3.181,5.512
		C32.698,15.417,33.442,16.388,34.484,16.989z M36.087,10.677c0.644-0.172,1.317-0.083,1.896,0.25
		c0.579,0.334,0.992,0.873,1.165,1.518c0.357,1.332-0.436,2.705-1.767,3.063c-0.644,0.173-1.318,0.084-1.897-0.25
		c-0.578-0.334-0.992-0.873-1.164-1.517C33.963,12.409,34.756,11.035,36.087,10.677z"/>
	<path d="M54.601,39.163c-0.513-0.205-1.095,0.049-1.297,0.562c-3.215,8.126-10.401,13.123-19.223,13.368
		c-0.552,0.015-0.987,0.475-0.972,1.027c0.015,0.543,0.459,0.972,0.999,0.972c0.009,0,0.019,0,0.028,0
		c9.648-0.268,17.508-5.737,21.027-14.632C55.367,39.947,55.115,39.366,54.601,39.163z"/>
</g>
<g>
</g>
<g>
</g>
<g>
</g>
<g>
</g>
<g>
</g>
<g>
</g>
<g>
</g>
<g>
</g>
<g>
</g>
<g>
</g>
<g>
</g>
<g>
</g>
<g>
</g>
<g>
</g>
<g>
</g>
</svg>
