<?xml version="1.0" encoding="iso-8859-1"?>
<!-- Generator: Adobe Illustrator 19.0.0, SVG Export Plug-In . SVG Version: 6.00 Build 0)  -->
<svg version="1.1" id="Capa_1" xmlns="http://www.w3.org/2000/svg" xmlns:xlink="http://www.w3.org/1999/xlink" x="0px" y="0px"
	 viewBox="0 0 63.998 63.998" style="enable-background:new 0 0 63.998 63.998;" xml:space="preserve">
<g id="Skittles_1_">
	<path id="Skittles" d="M57.455,27.303l-1.449-4.826c-0.769-2.567-1.17-5.224-1.194-7.9c0.021-0.08,0.032-0.164,0.032-0.25
		c0-2.307,0.32-4.602,0.95-6.818c0.155-0.531,0.233-1.082,0.233-1.639c0-3.236-2.633-5.869-5.87-5.869
		c-3.236,0-5.869,2.633-5.869,5.869c0,0.597,0.09,1.121,0.25,1.531c0.648,2.17,0.983,4.418,0.995,6.687
		c0.015,2.921-0.406,5.82-1.252,8.618l-1.391,4.605c-0.886,2.934-1.444,5.932-1.696,8.944c-0.329-2.318-0.823-4.622-1.504-6.89
		L38.1,24.06c-0.812-2.706-1.236-5.509-1.26-8.335c0.022-0.082,0.034-0.168,0.034-0.258c0-2.538,0.349-5.061,1.034-7.495
		c0.161-0.559,0.242-1.14,0.242-1.726C38.15,2.802,35.348,0,31.904,0c-3.444,0-6.246,2.802-6.246,6.246
		c0,0.622,0.091,1.169,0.256,1.607c0.707,2.401,1.071,4.887,1.085,7.387c0.015,3.068-0.426,6.108-1.312,9.037l-1.539,5.095
		c-0.61,2.019-1.078,4.067-1.409,6.128c-0.276-2.76-0.808-5.505-1.616-8.197l-1.447-4.827c-0.77-2.563-1.171-5.216-1.196-7.893
		c0.022-0.082,0.034-0.169,0.034-0.258c0-2.311,0.32-4.607,0.948-6.818c0.155-0.531,0.233-1.082,0.233-1.639
		C19.697,2.633,17.064,0,13.828,0c-3.237,0-5.87,2.633-5.87,5.869c0,0.592,0.089,1.115,0.25,1.531
		c0.648,2.17,0.983,4.418,0.995,6.687c0.015,2.921-0.406,5.82-1.251,8.618L6.563,27.31C3.495,37.461,4.239,48.362,8.658,58.005
		c0.088,0.193,0.236,0.353,0.421,0.456c1.523,0.851,3.083,1.276,4.669,1.276c1.578,0,3.183-0.421,4.801-1.264
		c0.198-0.103,0.355-0.268,0.448-0.471c1.604-3.5,2.719-7.168,3.35-10.905c0.473,5.247,1.822,10.42,4.055,15.293
		c0.097,0.212,0.266,0.384,0.476,0.485c1.556,0.748,3.179,1.121,4.859,1.121c1.663,0,3.38-0.367,5.141-1.099
		c0.232-0.097,0.42-0.278,0.525-0.507c2.331-5.086,3.708-10.5,4.126-15.985c0.603,3.976,1.754,7.88,3.458,11.597
		c0.05,0.108,0.12,0.208,0.204,0.292c0.065,0.066,0.139,0.121,0.219,0.166c1.523,0.851,3.084,1.277,4.67,1.277
		c1.578,0,3.181-0.421,4.799-1.263c0.091-0.047,0.175-0.109,0.247-0.182c0.084-0.084,0.152-0.182,0.202-0.291
		C59.747,48.364,60.502,37.461,57.455,27.303z M13.828,2c2.133,0,3.868,1.735,3.868,3.869c0,0.367-0.052,0.73-0.155,1.086
		c-0.657,2.31-1.001,4.698-1.025,7.105c-0.023,0.085-0.036,0.174-0.036,0.267c0,2.317,0.274,4.618,0.797,6.868h-6.863
		c0.533-2.333,0.802-4.718,0.789-7.121c-0.013-2.456-0.376-4.894-1.102-7.314c-0.096-0.254-0.143-0.545-0.143-0.89
		C9.958,3.735,11.695,2,13.828,2z M17.324,56.853c-2.432,1.175-4.724,1.179-6.986,0.013c-4.093-9.123-4.756-19.399-1.862-28.977
		l1.39-4.606c0.009-0.029,0.015-0.06,0.024-0.089h7.914l1.405,4.684C22.082,37.458,21.411,47.733,17.324,56.853z M31.904,2
		c2.341,0,4.246,1.905,4.246,4.246c0,0.399-0.055,0.794-0.166,1.178c-0.713,2.53-1.086,5.145-1.11,7.776
		c-0.023,0.085-0.036,0.174-0.036,0.267c0,1.677,0.143,3.345,0.404,4.995h-6.65c0.271-1.727,0.414-3.475,0.406-5.233
		c-0.015-2.687-0.407-5.358-1.188-8.005c-0.103-0.278-0.153-0.597-0.153-0.977C27.658,3.905,29.563,2,31.904,2z M35.75,61.197
		c-2.765,1.067-5.284,1.076-7.681,0.025c-4.415-9.846-5.129-20.936-2.006-31.272l1.539-5.095c0.239-0.79,0.446-1.589,0.624-2.394
		h7.391c0.164,0.73,0.351,1.455,0.567,2.173l1.591,5.303C40.876,40.274,40.155,51.359,35.75,61.197z M50.158,2
		c2.134,0,3.87,1.735,3.87,3.869c0,0.367-0.052,0.73-0.155,1.086c-0.659,2.316-1.004,4.707-1.027,7.112
		c-0.022,0.083-0.034,0.17-0.034,0.259c0,2.316,0.273,4.617,0.796,6.868h-6.862c0.533-2.333,0.802-4.718,0.79-7.121
		c-0.013-2.456-0.376-4.894-1.103-7.317c-0.095-0.249-0.142-0.539-0.142-0.887C46.289,3.735,48.025,2,50.158,2z M53.655,56.853
		c-2.432,1.176-4.724,1.179-6.986,0.014c-4.092-9.123-4.755-19.401-1.862-28.979l1.391-4.605c0.009-0.029,0.015-0.06,0.023-0.089
		h7.912l1.407,4.684C58.413,37.459,57.742,47.734,53.655,56.853z"/>
</g>
<g>
</g>
<g>
</g>
<g>
</g>
<g>
</g>
<g>
</g>
<g>
</g>
<g>
</g>
<g>
</g>
<g>
</g>
<g>
</g>
<g>
</g>
<g>
</g>
<g>
</g>
<g>
</g>
<g>
</g>
</svg>
