<?xml version="1.0" encoding="iso-8859-1"?>
<!-- Generator: Adobe Illustrator 19.0.0, SVG Export Plug-In . SVG Version: 6.00 Build 0)  -->
<svg version="1.1" id="Capa_1" xmlns="http://www.w3.org/2000/svg" xmlns:xlink="http://www.w3.org/1999/xlink" x="0px" y="0px"
	 viewBox="0 0 61.134 61.134" style="enable-background:new 0 0 61.134 61.134;" xml:space="preserve">
<g id="Football">
	<path d="M24.967,47.134c-3.86,0-7,3.14-7,7s3.14,7,7,7c3.86,0,7-3.14,7-7S28.827,47.134,24.967,47.134z M24.967,59.134
		c-2.757,0-5-2.243-5-5s2.243-5,5-5c2.757,0,5,2.243,5,5S27.724,59.134,24.967,59.134z"/>
	<path d="M49.46,31.013c0.081,0.02,0.162,0.029,0.242,0.029c0.448,0,0.856-0.304,0.97-0.759l2.944-11.856
		c0.101-0.41-0.065-0.839-0.416-1.073L44.718,11.7l0.824-1.756c0.25,0.039,0.504,0.059,0.759,0.059c0.56,0,1.13-0.095,1.687-0.295
		C50.581,8.774,51.933,5.905,51,3.311c-0.451-1.256-1.366-2.261-2.574-2.831c-1.209-0.57-2.567-0.634-3.822-0.182
		C42.01,1.23,40.659,4.1,41.591,6.694c0.396,1.102,1.148,1.969,2.073,2.542l-1.147,2.446c-0.156-0.108-0.332-0.186-0.536-0.191
		l-9.929-0.194c-0.391-0.004-0.719,0.194-0.898,0.521l-8.833,16.195c-0.265,0.485-0.086,1.092,0.399,1.357
		c0.152,0.083,0.316,0.122,0.478,0.122c0.354,0,0.697-0.189,0.879-0.521l8.543-15.662l9.05,0.177l-7.46,15.906L21.57,41.439
		L8.31,43.7c-0.013,0.002-0.023,0.011-0.036,0.014c-0.013,0.003-0.026-0.002-0.039,0.002c-0.055,0.014-0.096,0.048-0.146,0.07
		c-0.061,0.027-0.124,0.047-0.178,0.085c-0.054,0.037-0.094,0.086-0.139,0.132c-0.044,0.046-0.091,0.087-0.126,0.14
		c-0.035,0.054-0.054,0.113-0.078,0.173c-0.024,0.06-0.053,0.116-0.065,0.179c-0.013,0.065-0.006,0.131-0.006,0.198
		c0,0.054-0.014,0.106-0.005,0.161c0.002,0.014,0.011,0.025,0.014,0.039c0.003,0.012-0.001,0.024,0.002,0.036l1.472,5.889
		c0.114,0.454,0.522,0.757,0.969,0.757c0.08,0,0.162-0.009,0.244-0.03c0.536-0.134,0.861-0.677,0.728-1.213L9.71,45.491
		l12.497-2.132c0.196-0.034,0.378-0.125,0.522-0.262l11.828-11.271l12.507,11.351L42.87,54.961c-0.02,0.055-0.014,0.111-0.024,0.167
		c-0.01,0.057-0.034,0.109-0.034,0.169c0,0.01,0.005,0.018,0.006,0.028c0.002,0.075,0.025,0.144,0.044,0.216
		c0.014,0.055,0.019,0.113,0.042,0.164c0.026,0.058,0.069,0.105,0.106,0.157c0.037,0.053,0.067,0.109,0.114,0.154
		c0.04,0.038,0.092,0.062,0.138,0.093c0.062,0.042,0.12,0.087,0.191,0.115c0.009,0.004,0.015,0.011,0.024,0.015
		c0.111,0.04,0.224,0.059,0.335,0.059c0.001,0,0.002,0,0.003,0h7.358c0.552,0,1-0.448,1-1c0-0.552-0.448-1-1-1h-5.944l3.942-11.077
		c0.136-0.38,0.029-0.805-0.27-1.076L35.952,30.391l7.908-16.861l7.646,5.097L48.73,29.801
		C48.597,30.337,48.924,30.879,49.46,31.013z M45.281,2.18L45.281,2.18c0.331-0.119,0.674-0.178,1.016-0.178
		c0.436,0,0.871,0.096,1.277,0.288c0.726,0.341,1.274,0.944,1.545,1.698c0.559,1.557-0.251,3.278-1.808,3.837
		c-1.556,0.56-3.278-0.251-3.837-1.808C42.914,4.461,43.725,2.739,45.281,2.18z"/>
</g>
<g>
</g>
<g>
</g>
<g>
</g>
<g>
</g>
<g>
</g>
<g>
</g>
<g>
</g>
<g>
</g>
<g>
</g>
<g>
</g>
<g>
</g>
<g>
</g>
<g>
</g>
<g>
</g>
<g>
</g>
</svg>
