<?xml version="1.0" encoding="iso-8859-1"?>
<!-- Generator: Adobe Illustrator 19.0.0, SVG Export Plug-In . SVG Version: 6.00 Build 0)  -->
<svg version="1.1" id="Capa_1" xmlns="http://www.w3.org/2000/svg" xmlns:xlink="http://www.w3.org/1999/xlink" x="0px" y="0px"
	 viewBox="0 0 64 64" style="enable-background:new 0 0 64 64;" xml:space="preserve">
<g id="Air-balloon_1_">
	<path id="Air-balloon" d="M32,0C20.723,0,11.548,9.175,11.548,20.451c0,6.311,2.988,12.374,7.994,16.219
		c0.175,0.134,0.389,0.207,0.609,0.207h0.677l4.616,17.094h-0.123c-0.553,0-1,0.447-1,1V63c0,0.553,0.447,1,1,1h13.354
		c0.553,0,1-0.447,1-1v-8.029c0-0.53-0.414-0.951-0.935-0.987l4.62-17.107h0.487c0.221,0,0.435-0.073,0.609-0.207
		c5.005-3.845,7.993-9.907,7.993-16.219C52.452,9.175,43.277,0,32,0z M37.801,2.961c6.517,11.814,6.615,22.258,0.324,31.916H33
		V2.051c1.666,0.09,3.275,0.391,4.796,0.896C37.799,2.951,37.799,2.956,37.801,2.961z M25.875,34.877
		c-6.291-9.658-6.193-20.102,0.324-31.916c0.002-0.005,0.002-0.01,0.004-0.014c1.521-0.505,3.13-0.806,4.797-0.896v32.826H25.875z
		 M13.548,20.451c0-7.031,3.956-13.153,9.758-16.266c-5.534,11.202-5.46,21.28,0.208,30.692h-3.018
		C16.139,31.399,13.548,26.032,13.548,20.451z M22.901,36.877H31v17.094h-3.483L22.901,36.877z M37.677,62H26.323v-6.029h11.354V62z
		 M36.674,53.971H33V36.877h8.29L36.674,53.971z M43.504,34.877h-3.019c5.668-9.412,5.742-19.49,0.208-30.692
		c5.801,3.113,9.758,9.235,9.758,16.266C50.452,26.033,47.861,31.4,43.504,34.877z"/>
</g>
<g>
</g>
<g>
</g>
<g>
</g>
<g>
</g>
<g>
</g>
<g>
</g>
<g>
</g>
<g>
</g>
<g>
</g>
<g>
</g>
<g>
</g>
<g>
</g>
<g>
</g>
<g>
</g>
<g>
</g>
</svg>
