<?xml version="1.0" encoding="iso-8859-1"?>
<!-- Generator: Adobe Illustrator 19.0.0, SVG Export Plug-In . SVG Version: 6.00 Build 0)  -->
<svg version="1.1" id="Capa_1" xmlns="http://www.w3.org/2000/svg" xmlns:xlink="http://www.w3.org/1999/xlink" x="0px" y="0px"
	 viewBox="0 0 63.981 63.981" style="enable-background:new 0 0 63.981 63.981;" xml:space="preserve">
<g id="Skates_1_">
	<path id="Skates" d="M63,38.718c-0.542,0-0.982,0.439-0.982,0.981c0,3.714-1.102,6.627-3.276,8.657
		c-4.013,3.746-10.435,3.351-10.568,3.344h-7.531v-5.706h6.365c0.002,0,0.004,0,0.006,0c1.934,0,3.731-0.872,4.931-2.391
		c1.2-1.521,1.63-3.473,1.18-5.357c-0.044-0.186-0.139-0.349-0.269-0.478c-1.88-6.444-7.815-10.914-14.536-10.914
		c-1.409-0.028-2.844-0.028-4.187-0.028c-3.63,0-7.021-1.949-8.851-5.085l-6.385-10.946c-0.179-0.307-0.508-0.496-0.864-0.496H1
		c-0.552,0-1,0.448-1,1V35c0,2.937,1.143,5.697,3.221,7.774c2.078,2.076,4.838,3.219,7.774,3.219h4.504V51.7H1
		c-0.542,0-0.982,0.44-0.982,0.982S0.458,53.663,1,53.663l47.104-0.002c0.055,0.004,0.342,0.022,0.803,0.022
		c2.02,0,7.379-0.358,11.164-3.882c2.595-2.417,3.911-5.815,3.911-10.102C63.981,39.157,63.542,38.718,63,38.718z M4.635,41.36
		C2.935,39.661,2,37.402,2,35V12.299h15.459l3.55,6.086h-6.531c-0.552,0-1,0.448-1,1c0,0.552,0.448,1,1,1h6.738
		c0.304,0,0.567-0.143,0.751-0.358l1.587,2.721c0.148,0.253,0.325,0.483,0.489,0.724h-5.63c-0.552,0-1,0.448-1,1s0.448,1,1,1h6.74
		c0.164,0,0.313-0.049,0.45-0.12c2.258,2.189,5.313,3.474,8.529,3.474c1.33,0,2.752,0,4.167,0.028
		c5.954,0,11.184,4.017,12.719,9.769c0.002,0.004,0.003,0.01,0.004,0.014c0.047,0.167,0.125,0.314,0.228,0.436
		c0.176,1.169-0.134,2.35-0.876,3.29c-0.818,1.036-2.042,1.63-3.362,1.63c-0.001,0-0.002,0-0.004,0H10.995
		C8.594,43.993,6.334,43.058,4.635,41.36z M17.5,45.993h21.143V51.7H17.5V45.993z"/>
</g>
<g>
</g>
<g>
</g>
<g>
</g>
<g>
</g>
<g>
</g>
<g>
</g>
<g>
</g>
<g>
</g>
<g>
</g>
<g>
</g>
<g>
</g>
<g>
</g>
<g>
</g>
<g>
</g>
<g>
</g>
</svg>
