<?xml version="1.0" encoding="iso-8859-1"?>
<!-- Generator: Adobe Illustrator 19.0.0, SVG Export Plug-In . SVG Version: 6.00 Build 0)  -->
<svg version="1.1" id="Capa_1" xmlns="http://www.w3.org/2000/svg" xmlns:xlink="http://www.w3.org/1999/xlink" x="0px" y="0px"
	 viewBox="0 0 64 64" style="enable-background:new 0 0 64 64;" xml:space="preserve">
<g id="Medal">
	<path d="M31.097,40.57l-1.955,4.107l-4.299,0.683c-0.368,0.059-0.673,0.317-0.792,0.67c-0.118,0.354-0.03,0.744,0.229,1.012
		l3.125,3.238l-0.72,4.564c-0.06,0.376,0.1,0.753,0.412,0.973c0.311,0.22,0.721,0.242,1.055,0.061L32,53.779l3.848,2.099
		C35.998,55.959,36.162,56,36.327,56c0.203,0,0.404-0.062,0.576-0.183c0.312-0.22,0.471-0.597,0.412-0.973l-0.72-4.564l3.125-3.238
		c0.259-0.268,0.347-0.658,0.229-1.012c-0.118-0.354-0.423-0.612-0.792-0.67l-4.299-0.683l-1.955-4.107
		C32.737,40.222,32.386,40,32,40C31.614,40,31.263,40.222,31.097,40.57z M33.278,46.012c0.142,0.297,0.42,0.506,0.746,0.558
		l2.923,0.464l-2.138,2.215c-0.218,0.226-0.317,0.541-0.268,0.85l0.481,3.05l-2.543-1.388C32.33,51.68,32.165,51.64,32,51.64
		c-0.165,0-0.33,0.041-0.479,0.122l-2.543,1.388l0.481-3.05c0.049-0.31-0.05-0.625-0.268-0.85l-2.138-2.215l2.923-0.464
		c0.326-0.052,0.604-0.261,0.746-0.558L32,43.327L33.278,46.012z"/>
	<path d="M48,0h-5.448H21.448H16c-0.552,0-1,0.448-1,1c0,0.552,0.448,1,1,1h4.296L18.01,18.164c-0.044,0.315,0.063,0.631,0.29,0.854
		c0.293,0.287,7.053,6.893,12.7,10.526v2.507C22.644,32.571,16,39.515,16,48c0,8.823,7.177,16,16,16c8.823,0,16-7.178,16-16
		c0-8.485-6.644-15.428-15-15.949v-2.507c5.647-3.633,12.408-10.238,12.7-10.526c0.227-0.223,0.334-0.539,0.29-0.854L43.704,2H48
		c0.552,0,1-0.448,1-1C49,0.448,48.552,0,48,0z M22.316,2H26v21.272c-2.736-2.297-5.071-4.5-5.938-5.332L22.316,2z M28,24.904V2h3
		v25.143C30.01,26.457,28.997,25.693,28,24.904z M46,48c0,7.72-6.281,14-14,14c-7.719,0-14-6.281-14-14c0-7.719,6.28-14,14-14
		C39.719,34,46,40.28,46,48z M33,2h3v22.904c-0.997,0.789-2.01,1.553-3,2.239V2z M43.938,17.94
		c-0.867,0.832-3.201,3.035-5.938,5.333V2h3.684L43.938,17.94z"/>
</g>
<g>
</g>
<g>
</g>
<g>
</g>
<g>
</g>
<g>
</g>
<g>
</g>
<g>
</g>
<g>
</g>
<g>
</g>
<g>
</g>
<g>
</g>
<g>
</g>
<g>
</g>
<g>
</g>
<g>
</g>
</svg>
