<?xml version="1.0" encoding="iso-8859-1"?>
<!-- Generator: Adobe Illustrator 19.0.0, SVG Export Plug-In . SVG Version: 6.00 Build 0)  -->
<svg version="1.1" id="Capa_1" xmlns="http://www.w3.org/2000/svg" xmlns:xlink="http://www.w3.org/1999/xlink" x="0px" y="0px"
	 viewBox="0 0 64 64" style="enable-background:new 0 0 64 64;" xml:space="preserve">
<g id="Pool">
	<path d="M51.403,53.067c-2.481,0-4.5,2.019-4.5,4.5c0,2.482,2.019,4.5,4.5,4.5s4.5-2.019,4.5-4.5
		C55.903,55.086,53.884,53.067,51.403,53.067z M51.403,60.068c-1.379,0-2.5-1.122-2.5-2.5c0-1.378,1.121-2.5,2.5-2.5
		c1.379,0,2.5,1.122,2.5,2.5C53.903,58.946,52.782,60.068,51.403,60.068z"/>
	<path d="M17.411,24.97c0,2.481,2.019,4.5,4.5,4.5c2.482,0,4.5-2.019,4.5-4.5c0-2.481-2.018-4.5-4.5-4.5
		C19.429,20.47,17.411,22.488,17.411,24.97z M24.411,24.97c0,1.378-1.121,2.5-2.5,2.5s-2.5-1.122-2.5-2.5c0-1.378,1.121-2.5,2.5-2.5
		S24.411,23.592,24.411,24.97z"/>
	<path d="M21.754,15.656c0-2.481-2.019-4.5-4.5-4.5c-2.482,0-4.5,2.019-4.5,4.5c0,2.481,2.018,4.5,4.5,4.5
		C19.735,20.156,21.754,18.138,21.754,15.656z M14.754,15.656c0-1.378,1.121-2.5,2.5-2.5s2.5,1.122,2.5,2.5s-1.121,2.5-2.5,2.5
		S14.754,17.035,14.754,15.656z"/>
	<path d="M17.097,6.343c0-2.481-2.019-4.5-4.5-4.5c-2.481,0-4.5,2.019-4.5,4.5c0,2.481,2.019,4.5,4.5,4.5
		C15.079,10.843,17.097,8.824,17.097,6.343z M12.597,8.843c-1.379,0-2.5-1.122-2.5-2.5s1.121-2.5,2.5-2.5s2.5,1.122,2.5,2.5
		S13.976,8.843,12.597,8.843z"/>
	<path d="M31.224,10.843c2.481,0,4.5-2.019,4.5-4.5c0-2.481-2.019-4.5-4.5-4.5c-2.482,0-4.5,2.019-4.5,4.5
		C26.724,8.824,28.743,10.843,31.224,10.843z M31.224,3.843c1.379,0,2.5,1.122,2.5,2.5s-1.121,2.5-2.5,2.5
		c-1.379,0-2.5-1.122-2.5-2.5S29.845,3.843,31.224,3.843z"/>
	<path d="M22.067,15.656c0,2.481,2.018,4.5,4.5,4.5c2.481,0,4.5-2.019,4.5-4.5c0-2.481-2.019-4.5-4.5-4.5
		C24.086,11.156,22.067,13.175,22.067,15.656z M26.567,13.156c1.379,0,2.5,1.122,2.5,2.5s-1.121,2.5-2.5,2.5s-2.5-1.122-2.5-2.5
		S25.188,13.156,26.567,13.156z"/>
	<path d="M21.911,10.843c2.482,0,4.5-2.019,4.5-4.5c0-2.481-2.018-4.5-4.5-4.5c-2.481,0-4.5,2.019-4.5,4.5
		C17.411,8.824,19.429,10.843,21.911,10.843z M21.911,3.843c1.379,0,2.5,1.122,2.5,2.5s-1.121,2.5-2.5,2.5s-2.5-1.122-2.5-2.5
		S20.532,3.843,21.911,3.843z"/>
	<path d="M55.575,3.012c-0.07-0.258-0.241-0.476-0.475-0.607l-4.063-2.277C50.555-0.14,49.956,0.027,49.681,0.5L26.457,40.727
		c-0.001,0.001-0.002,0.002-0.002,0.003c-0.001,0.001-0.001,0.002-0.001,0.004L15.231,60.172c-0.276,0.478-0.112,1.09,0.366,1.366
		l4.032,2.329C19.783,63.955,19.956,64,20.13,64c0.087,0,0.174-0.011,0.259-0.034c0.256-0.068,0.475-0.236,0.608-0.466L55.477,3.778
		C55.611,3.546,55.646,3.27,55.575,3.012z M19.763,61.634l-2.3-1.328l10.224-17.709l2.301,1.328L19.763,61.634z M30.988,42.192
		l-2.301-1.328L50.92,2.355l2.319,1.299L30.988,42.192z"/>
</g>
<g>
</g>
<g>
</g>
<g>
</g>
<g>
</g>
<g>
</g>
<g>
</g>
<g>
</g>
<g>
</g>
<g>
</g>
<g>
</g>
<g>
</g>
<g>
</g>
<g>
</g>
<g>
</g>
<g>
</g>
</svg>
