<?xml version="1.0" encoding="iso-8859-1"?>
<!-- Generator: Adobe Illustrator 19.0.0, SVG Export Plug-In . SVG Version: 6.00 Build 0)  -->
<svg version="1.1" id="Capa_1" xmlns="http://www.w3.org/2000/svg" xmlns:xlink="http://www.w3.org/1999/xlink" x="0px" y="0px"
	 viewBox="0 0 64 64" style="enable-background:new 0 0 64 64;" xml:space="preserve">
<g id="Prize-place">
	<path d="M27.321,16.508l-2.084,6.578c-0.131,0.414,0.02,0.865,0.373,1.117c0.354,0.252,0.829,0.247,1.178-0.013l5.423-4.041
		l5.421,4.041c0.177,0.132,0.387,0.198,0.598,0.198c0.203,0,0.406-0.061,0.58-0.185c0.354-0.252,0.504-0.703,0.373-1.117
		L37.1,16.508l5.448-4.061c0.346-0.257,0.487-0.707,0.352-1.117c-0.136-0.409-0.518-0.685-0.949-0.685h-6.708l-2.078-6.559
		c-0.131-0.415-0.517-0.698-0.953-0.698c-0.436,0-0.822,0.282-0.953,0.698l-2.078,6.559h-6.71c-0.431,0-0.813,0.276-0.949,0.685
		c-0.136,0.409,0.006,0.859,0.352,1.117L27.321,16.508z M29.913,12.645c0.436,0,0.822-0.282,0.953-0.698l1.346-4.247l1.346,4.248
		c0.131,0.416,0.517,0.698,0.953,0.698h4.425l-3.602,2.685c-0.341,0.254-0.484,0.698-0.356,1.103l1.362,4.299l-3.531-2.632
		c-0.355-0.265-0.841-0.265-1.195,0l-3.533,2.632l1.362-4.299c0.129-0.406-0.014-0.85-0.355-1.104l-3.601-2.685H29.913z"/>
	<path d="M58.73,20.572c5.131-0.499,5.269-4.165,5.27-4.205c0.01-0.545-0.417-0.985-0.961-1.007
		c-0.562-0.021-1.006,0.407-1.038,0.95c-0.005,0.085-0.16,1.854-3.211,2.243c0.023-1.438,0.009-3.184-0.083-5.233
		c5.155-0.49,5.292-4.167,5.293-4.207c0.01-0.544-0.417-0.985-0.961-1.007c-0.562-0.029-1.006,0.407-1.038,0.95
		c-0.005,0.086-0.168,1.925-3.405,2.263c-0.022-0.335-0.042-0.667-0.068-1.016c-0.041-0.551-0.521-0.964-1.071-0.923
		c-0.55,0.041-0.964,0.521-0.923,1.071c0.023,0.302,0.04,0.589,0.059,0.881c-3.363-0.301-3.528-2.188-3.532-2.257
		c-0.01-0.552-0.465-0.989-1.019-0.981c-0.552,0.011-0.991,0.467-0.981,1.019c0.001,0.04,0.153,3.873,5.645,4.228
		c0.093,2.068,0.105,3.828,0.08,5.266c-3.558-0.242-3.721-2.206-3.725-2.277c-0.01-0.552-0.423-0.97-1.019-0.981
		c-0.552,0.011-0.991,0.467-0.981,1.019c0.001,0.04,0.154,3.88,5.661,4.229c-0.077,1.578-0.184,2.442-0.19,2.496
		c-0.003,0.057-0.063,1.033-0.297,2.613c-3.018-0.397-3.17-2.152-3.174-2.219c-0.01-0.552-0.465-0.98-1.019-0.981
		c-0.552,0.011-0.991,0.467-0.981,1.019c0.001,0.039,0.142,3.485,4.841,4.145c-0.282,1.472-0.687,3.22-1.261,5.125
		c-3.43-0.813-3.28-2.762-3.274-2.832c0.078-0.547-0.302-1.053-0.849-1.131c-0.543-0.073-1.054,0.301-1.131,0.849
		c-0.006,0.04-0.466,3.734,4.634,5.022c-0.565,1.628-1.259,3.333-2.101,5.054c-2.73-1.027-2.512-2.723-2.503-2.788
		c0.106-0.542-0.248-1.067-0.791-1.172c-0.543-0.105-1.067,0.248-1.172,0.791c-0.007,0.037-0.573,3.278,3.539,4.949
		c-0.878,1.592-1.893,3.173-3.068,4.699c-2.831-1.875-2.072-3.619-2.042-3.683c0.254-0.49,0.063-1.094-0.427-1.348
		c-0.491-0.254-1.094-0.063-1.348,0.427c-0.018,0.035-1.62,3.279,2.547,6.155c-3.515,4.04-8.271,7.51-14.708,9.37
		c-5.845-1.667-10.747-4.778-14.673-9.314c4.269-2.889,2.641-6.175,2.623-6.211c-0.254-0.49-0.856-0.681-1.348-0.427
		c-0.49,0.254-0.682,0.858-0.427,1.348c0.01,0.019,0.88,1.799-2.115,3.734c-1.108-1.449-2.13-3.023-3.063-4.726
		c4.181-1.663,3.613-4.937,3.606-4.974c-0.104-0.534-0.618-0.873-1.15-0.784c-0.537,0.093-0.898,0.608-0.816,1.146
		c0.012,0.083,0.232,1.806-2.566,2.83c-0.835-1.722-1.523-3.432-2.081-5.067c5.146-1.278,4.686-4.992,4.681-5.032
		c-0.078-0.548-0.589-0.923-1.131-0.849c-0.547,0.078-0.927,0.585-0.849,1.131c0.003,0.021,0.241,2.02-3.311,2.842
		c-0.564-1.904-0.96-3.653-1.237-5.133c4.711-0.655,4.852-4.108,4.853-4.147c0.01-0.544-0.417-0.985-0.961-1.007
		c-0.573-0.019-1.006,0.407-1.038,0.95c-0.005,0.084-0.158,1.842-3.18,2.238c-0.236-1.628-0.295-2.64-0.299-2.695
		c-0.003-0.019-0.108-0.858-0.183-2.414c5.508-0.349,5.66-4.189,5.661-4.23c0.01-0.544-0.417-0.985-0.961-1.007
		c-0.573-0.021-1.006,0.407-1.038,0.95c-0.005,0.089-0.169,2.054-3.726,2.296c-0.025-1.435-0.013-3.196,0.08-5.266
		c5.492-0.355,5.644-4.188,5.645-4.228c0.01-0.544-0.417-0.985-0.961-1.007c-0.573-0.029-1.006,0.407-1.038,0.95
		c-0.005,0.087-0.17,1.975-3.533,2.276c0.019-0.292,0.037-0.579,0.059-0.881c0.041-0.551-0.373-1.031-0.923-1.071
		c-0.561-0.04-1.031,0.372-1.071,0.923c-0.026,0.348-0.047,0.681-0.068,1.016C2.196,10.983,2.008,9.173,2,9.057
		c-0.02-0.544-0.466-0.96-1.018-0.964C0.429,8.103-0.01,8.559,0,9.112c0.001,0.04,0.138,3.717,5.294,4.207
		c-0.092,2.052-0.106,3.799-0.084,5.234C2.186,18.167,2.008,16.426,2,16.312c-0.02-0.544-0.466-0.977-1.018-0.964
		C0.429,15.359-0.01,15.815,0,16.367c0.001,0.039,0.139,3.705,5.271,4.204c0.078,1.671,0.193,2.57,0.201,2.617
		c0.003,0.058,0.059,1.011,0.286,2.576C2.201,25.534,2.008,23.59,2,23.47c-0.02-0.544-0.466-0.979-1.018-0.964
		C0.429,22.516-0.01,22.972,0,23.525c0.001,0.042,0.163,4.075,6.093,4.247c0.283,1.512,0.695,3.32,1.278,5.299
		c-3.081,0.119-3.541-1.586-3.566-1.696c-0.106-0.534-0.622-0.889-1.159-0.789c-0.543,0.098-0.904,0.619-0.806,1.162
		c0.007,0.038,0.662,3.333,5.224,3.333c0.292,0,0.602-0.016,0.927-0.044c0.569,1.679,1.261,3.441,2.11,5.225
		c-3.618,0.573-4.229-1.322-4.262-1.438c-0.133-0.528-0.668-0.857-1.198-0.729c-0.538,0.126-0.872,0.664-0.746,1.202
		c0.008,0.036,0.776,3.077,4.931,3.077c0.651,0,1.389-0.079,2.216-0.251c0.917,1.712,1.981,3.422,3.221,5.072
		c-2.928,1.19-3.945-0.288-4.008-0.386c-0.276-0.469-0.88-0.631-1.355-0.36c-0.48,0.273-0.648,0.883-0.375,1.363
		c0.015,0.026,1.094,1.852,3.689,1.852c0.913,0,2.026-0.25,3.333-0.86c3.155,3.731,7.3,7.025,12.718,9.183
		c-2.229,0.392-4.612,0.626-7.205,0.626c-0.552,0-1,0.448-1,1c0,0.552,0.448,1,1,1c4.08,0,7.699-0.514,10.941-1.392
		c3.242,0.878,6.861,1.392,10.94,1.392c0.552,0,1-0.448,1-1c0-0.552-0.448-1-1-1c-2.551,0-4.973-0.203-7.271-0.598
		c5.452-2.157,9.618-5.465,12.786-9.21c1.307,0.609,2.419,0.859,3.331,0.859c2.594,0,3.674-1.826,3.689-1.852
		c0.269-0.473,0.105-1.064-0.363-1.343c-0.468-0.279-1.077-0.122-1.366,0.338c-0.045,0.073-1.051,1.59-4.007,0.39
		c1.241-1.651,2.306-3.361,3.223-5.073c0.825,0.171,1.562,0.25,2.212,0.25c4.154,0,4.922-3.041,4.931-3.077
		c0.124-0.53-0.201-1.051-0.728-1.186c-0.528-0.136-1.068,0.186-1.214,0.711c-0.024,0.087-0.614,2.019-4.259,1.441
		c0.849-1.785,1.542-3.548,2.11-5.226c0.323,0.029,0.632,0.044,0.922,0.044c4.56,0,5.217-3.296,5.224-3.333
		c0.097-0.535-0.254-1.039-0.788-1.147c-0.533-0.107-1.057,0.241-1.177,0.772c-0.018,0.083-0.455,1.817-3.562,1.699
		c0.584-1.983,0.995-3.79,1.276-5.299c5.925-0.173,6.087-4.205,6.088-4.247c0.01-0.545-0.417-0.985-0.961-1.007
		c-0.562-0.019-1.006,0.407-1.038,0.95c-0.005,0.089-0.171,2.064-3.755,2.297c0.219-1.524,0.274-2.448,0.276-2.493
		C58.533,23.187,58.651,22.264,58.73,20.572z"/>
</g>
<g>
</g>
<g>
</g>
<g>
</g>
<g>
</g>
<g>
</g>
<g>
</g>
<g>
</g>
<g>
</g>
<g>
</g>
<g>
</g>
<g>
</g>
<g>
</g>
<g>
</g>
<g>
</g>
<g>
</g>
</svg>
