<?xml version="1.0" encoding="iso-8859-1"?>
<!-- Generator: Adobe Illustrator 19.0.0, SVG Export Plug-In . SVG Version: 6.00 Build 0)  -->
<svg version="1.1" id="Capa_1" xmlns="http://www.w3.org/2000/svg" xmlns:xlink="http://www.w3.org/1999/xlink" x="0px" y="0px"
	 viewBox="0 0 63.987 63.987" style="enable-background:new 0 0 63.987 63.987;" xml:space="preserve">
<g id="Roller-skates">
	<path d="M63.712,31.801c-1.104-6.758-6.959-10.184-17.382-10.184c-1.71-0.034-3.451-0.034-5.081-0.034
		c-4.492,0-8.688-2.353-10.949-6.141L22.542,2.448l-0.854-0.484H0.993L0,2.957v28.135c0,3.438,1.369,6.67,3.856,9.1
		c2.444,2.389,5.827,3.759,9.28,3.759h43.754c2.194,0,3.927-0.729,5.149-2.167C64.541,38.841,64.042,33.822,63.712,31.801z
		 M5.245,38.771c-2.102-2.052-3.259-4.779-3.259-7.678V3.951h19.138l4.253,7.124H18.92c-0.553,0-1,0.448-1,1c0,0.552,0.447,1,1,1
		h7.652l1.88,3.148h-6.796c-0.553,0-1,0.448-1,1s0.447,1,1,1H29.8c0.014,0,0.025-0.007,0.038-0.008
		c2.758,3.343,6.957,5.355,11.411,5.355c0.539,0,1.102,0.001,1.66,0.003v18.391H13.137C10.197,41.964,7.321,40.8,5.245,38.771z
		 M60.524,40.497c-0.838,0.987-2.026,1.466-3.634,1.466H45.077V23.59c0.412,0.005,0.821,0.006,1.233,0.014
		c9.453,0,14.504,2.786,15.44,8.518C61.974,33.486,62.545,38.121,60.524,40.497z"/>
	<path d="M14.992,45.891c-4.447,0-8.065,3.619-8.065,8.067c0,4.447,3.618,8.065,8.065,8.065c4.448,0,8.067-3.618,8.067-8.065
		C23.06,49.51,19.441,45.891,14.992,45.891z M14.992,59.891c-3.271,0-5.933-2.661-5.933-5.933c0-3.272,2.661-5.935,5.933-5.935
		c3.273,0,5.935,2.662,5.935,5.935C20.927,57.23,18.265,59.891,14.992,59.891z"/>
	<path d="M48.992,45.891c-4.447,0-8.065,3.619-8.065,8.067c0,4.447,3.618,8.065,8.065,8.065c4.448,0,8.067-3.618,8.067-8.065
		C57.06,49.51,53.44,45.891,48.992,45.891z M48.992,59.891c-3.271,0-5.933-2.661-5.933-5.933c0-3.272,2.661-5.935,5.933-5.935
		c3.273,0,5.935,2.662,5.935,5.935C54.927,57.23,52.265,59.891,48.992,59.891z"/>
</g>
<g>
</g>
<g>
</g>
<g>
</g>
<g>
</g>
<g>
</g>
<g>
</g>
<g>
</g>
<g>
</g>
<g>
</g>
<g>
</g>
<g>
</g>
<g>
</g>
<g>
</g>
<g>
</g>
<g>
</g>
</svg>
