<?xml version="1.0" encoding="iso-8859-1"?>
<!-- Generator: Adobe Illustrator 19.0.0, SVG Export Plug-In . SVG Version: 6.00 Build 0)  -->
<svg version="1.1" id="Capa_1" xmlns="http://www.w3.org/2000/svg" xmlns:xlink="http://www.w3.org/1999/xlink" x="0px" y="0px"
	 viewBox="0 0 64.002 64.002" style="enable-background:new 0 0 64.002 64.002;" xml:space="preserve">
<g id="Runner_1_">
	<path id="Runner" d="M61.692,13.874c-0.372-0.407-1.006-0.435-1.413-0.06L48.618,24.523L37.549,13.525l1.149-2.449
		c0.478,0.129,0.967,0.202,1.458,0.202c0.643,0,1.287-0.111,1.909-0.335c1.416-0.509,2.549-1.54,3.191-2.902
		c0.642-1.363,0.715-2.893,0.206-4.309c-0.509-1.417-1.54-2.55-2.902-3.192c-1.362-0.642-2.893-0.714-4.309-0.205
		c-1.416,0.509-2.55,1.539-3.192,2.902c-0.642,1.363-0.715,2.894-0.205,4.309c0.394,1.096,1.106,2.015,2.036,2.675l-1.213,2.587
		c-0.05,0.034-0.106,0.056-0.15,0.1c-0.093-0.059-0.19-0.112-0.303-0.138L20.995,9.475c-0.452-0.106-0.913,0.114-1.12,0.527
		l-7.728,15.457c-0.247,0.494-0.047,1.095,0.447,1.342c0.143,0.072,0.296,0.106,0.446,0.106c0.367,0,0.72-0.202,0.896-0.553
		l7.376-14.752l13.46,3.118c0.003,0.001,0.006,0,0.009,0l-8.279,17.649c-0.009,0.019-0.008,0.041-0.016,0.06
		c-0.007,0.018-0.022,0.031-0.028,0.049l-5.584,16.806L2.941,51.187c-0.549,0.059-0.947,0.551-0.889,1.1
		c0.055,0.514,0.488,0.895,0.994,0.895c0.035,0,0.071-0.002,0.107-0.005l18.572-1.972c0.39-0.042,0.72-0.307,0.844-0.679
		l5.246-15.787l10.321,11.444l-7.457,16.405c-0.229,0.502-0.006,1.095,0.497,1.324c0.134,0.061,0.274,0.09,0.413,0.09
		c0.38-0.001,0.743-0.218,0.911-0.587l7.728-17.002c0.165-0.362,0.099-0.788-0.167-1.083L28.593,32.617l8.053-17.168l11.239,11.167
		c0.194,0.193,0.449,0.291,0.704,0.291c0.242,0,0.485-0.087,0.676-0.264l12.365-11.356C62.039,14.913,62.066,14.281,61.692,13.874z
		 M36.868,4.09c0.414-0.879,1.146-1.544,2.059-1.873h0.001c0.401-0.145,0.817-0.216,1.231-0.216c0.528,0,1.055,0.117,1.548,0.349
		c0.879,0.414,1.545,1.145,1.873,2.059c0.328,0.914,0.281,1.901-0.133,2.78c-0.414,0.879-1.145,1.544-2.059,1.873
		c-1.888,0.679-3.974-0.304-4.653-2.192C36.406,5.956,36.453,4.97,36.868,4.09z"/>
</g>
<g>
</g>
<g>
</g>
<g>
</g>
<g>
</g>
<g>
</g>
<g>
</g>
<g>
</g>
<g>
</g>
<g>
</g>
<g>
</g>
<g>
</g>
<g>
</g>
<g>
</g>
<g>
</g>
<g>
</g>
</svg>
