<?xml version="1.0" encoding="iso-8859-1"?>
<!-- Generator: Adobe Illustrator 19.0.0, SVG Export Plug-In . SVG Version: 6.00 Build 0)  -->
<svg version="1.1" id="Capa_1" xmlns="http://www.w3.org/2000/svg" xmlns:xlink="http://www.w3.org/1999/xlink" x="0px" y="0px"
	 viewBox="0 0 64 64" style="enable-background:new 0 0 64 64;" xml:space="preserve">
<g id="Alpine-skiing_1_">
	<path id="Alpine-skiing" d="M63.178,52.71c-0.546-0.104-1.064,0.263-1.162,0.806c-0.22,1.219-0.801,2.132-1.775,2.793
		c-2.94,1.992-8.28,0.929-8.357,0.914l-14.582-2.63l4.604-11.668c0.094-0.237,0.093-0.501-0.001-0.738l-4.352-10.892l7.875-16.912
		c0.309,0.059,0.622,0.101,0.941,0.101c0.56,0,1.13-0.095,1.687-0.295c1.256-0.451,2.261-1.366,2.83-2.574
		c0.569-1.208,0.634-2.565,0.183-3.822c-0.451-1.256-1.366-2.261-2.574-2.831c-1.209-0.569-2.566-0.634-3.822-0.182
		c-1.255,0.452-2.261,1.366-2.83,2.574c-0.569,1.209-0.634,2.565-0.183,3.822c0.374,1.04,1.061,1.876,1.915,2.45l-0.856,1.838
		l-12.297,3.311c-0.263,0.071-0.486,0.247-0.617,0.486l-5.866,10.732c-0.094,0.172-0.114,0.357-0.103,0.539L3.478,37.697
		l-0.489-1.138c-0.218-0.507-0.804-0.744-1.313-0.524c-0.507,0.218-0.742,0.806-0.524,1.313l0.436,1.015l-0.919,0.323
		c-0.521,0.184-0.794,0.754-0.611,1.275C0.202,40.373,0.588,40.63,1,40.63c0.11,0,0.222-0.019,0.332-0.057l1.045-0.368l0.382,0.889
		c0.163,0.379,0.532,0.606,0.92,0.606c0.131,0,0.265-0.026,0.394-0.081c0.507-0.218,0.742-0.806,0.524-1.314L4.268,39.54
		l25.969-9.142c0.521-0.184,0.794-0.754,0.611-1.275c-0.184-0.522-0.755-0.795-1.275-0.611l-3.154,1.11l4.934-9.028l10.261-2.763
		l-6.058,13.01c-0.002,0.005-0.001,0.01-0.004,0.015c-0.033,0.075-0.043,0.156-0.057,0.237c-0.008,0.048-0.03,0.094-0.031,0.142
		c-0.001,0.044,0.016,0.088,0.021,0.132c0.009,0.086,0.015,0.171,0.046,0.251c0.002,0.005,0.001,0.01,0.003,0.015L39.9,42.559
		L35.294,54.23l-20.203-3.644c-0.545-0.104-1.064,0.263-1.162,0.806c-0.098,0.544,0.263,1.064,0.806,1.162l36.768,6.632
		c0.125,0.026,1.663,0.334,3.625,0.334c1.982,0,4.398-0.314,6.229-1.552c1.427-0.964,2.31-2.343,2.626-4.096
		C64.082,53.328,63.721,52.807,63.178,52.71z M43.651,8.204c0.341-0.725,0.944-1.273,1.698-1.544h0
		c0.331-0.119,0.673-0.178,1.015-0.178c0.436,0,0.871,0.096,1.277,0.288c0.726,0.342,1.274,0.944,1.545,1.698
		c0.271,0.753,0.231,1.567-0.11,2.293c-0.341,0.725-0.944,1.273-1.698,1.544c-1.556,0.559-3.278-0.252-3.837-1.808
		C43.27,9.745,43.309,8.93,43.651,8.204z"/>
</g>
<g>
</g>
<g>
</g>
<g>
</g>
<g>
</g>
<g>
</g>
<g>
</g>
<g>
</g>
<g>
</g>
<g>
</g>
<g>
</g>
<g>
</g>
<g>
</g>
<g>
</g>
<g>
</g>
<g>
</g>
</svg>
