<?xml version="1.0" encoding="iso-8859-1"?>
<!-- Generator: Adobe Illustrator 19.0.0, SVG Export Plug-In . SVG Version: 6.00 Build 0)  -->
<svg version="1.1" id="Capa_1" xmlns="http://www.w3.org/2000/svg" xmlns:xlink="http://www.w3.org/1999/xlink" x="0px" y="0px"
	 viewBox="0 0 64.01 64.01" style="enable-background:new 0 0 64.01 64.01;" xml:space="preserve">
<g id="Football-boots_1_">
	<path id="Football-boots" d="M64.004,33.106c-0.148-2.94-2.746-5.464-5.171-6.205c-1.016-0.31-2.356-0.319-4.053-0.331
		c-2.494-0.017-5.832-0.041-9.726-1.108c-0.084-0.039-0.168-0.064-0.258-0.078c-3.797-1.079-8.105-3.151-12.673-7.18
		c-0.328-0.289-0.804-0.332-1.177-0.107c-1.707,1.025-2.617,2.291-3.42,3.408c-1.503,2.089-2.812,3.871-9.598,3.849
		C7.111,25.281,3.88,20.064,3.741,19.831c-0.194-0.332-0.565-0.533-0.944-0.493c-0.386,0.031-0.719,0.282-0.855,0.643
		c-0.178,0.471-4.301,11.64,0.035,20.64c0.15,0.311,0.45,0.523,0.793,0.56c0.685,0.074,1.34,0.132,1.981,0.182v3.693
		c0,0.552,0.448,1,1,1h4.514c0.552,0,1-0.448,1-1v-3.546c0.852-0.025,1.685-0.065,2.513-0.111v3.657c0,0.552,0.448,1,1,1h4.514
		c0.552,0,1-0.448,1-1v-4.051c1.458-0.071,3.011-0.12,4.727-0.125c0.022,0.001,0.042,0.012,0.064,0.012
		c0.02,0,0.039-0.011,0.06-0.013c0.579-0.001,1.171,0.002,1.791,0.013c2.213,0.037,4.558,0.143,7.041,0.255
		c2.098,0.094,4.263,0.191,6.431,0.247v3.662c0,0.552,0.448,1,1,1h4.514c0.552,0,1-0.448,1-1v-3.666
		c0.85-0.029,1.688-0.074,2.514-0.134v3.8c0,0.552,0.448,1,1,1h4.513c0.552,0,1-0.448,1-1v-4.514c0-0.089-0.029-0.168-0.05-0.25
		c1.075-0.269,2.097-0.588,3.035-0.982C63.52,37.382,64.08,34.595,64.004,33.106z M53.944,44.057H51.43v-2.514h2.513V44.057z
		 M32.206,39.07c-1.685-0.073-3.324-0.136-4.888-0.167l12.048-13.385c0.011-0.013,0.014-0.029,0.025-0.042
		c1.186,0.567,2.34,1.034,3.456,1.41L32.206,39.07z M3.28,22.39c1.921,1.914,6.261,4.908,14.635,4.964
		c0.084,0.001,0.167,0.001,0.249,0.001c7.617,0,9.33-2.38,10.986-4.682c0.638-0.887,1.247-1.733,2.232-2.464
		c2.126,1.812,4.192,3.211,6.183,4.32L24.646,38.882c-3.201,0.02-5.833,0.192-8.384,0.361c-4.127,0.272-7.713,0.509-12.714,0.01
		C0.844,33.081,2.365,25.669,3.28,22.39z M9.264,44.057H6.75v-2.514h2.514V44.057z M18.291,44.057h-2.514v-2.514h2.514V44.057z
		 M44.917,44.057h-2.514v-2.514h2.514V44.057z M58.154,37.467c-5.79,2.432-15.063,2.087-23.389,1.714l10.187-11.664
		c3.918,1.009,7.281,1.036,9.815,1.054c1.473,0.01,2.745,0.018,3.482,0.244c1.734,0.53,3.658,2.421,3.758,4.393
		C62.115,35.345,59.972,36.704,58.154,37.467z"/>
</g>
<g>
</g>
<g>
</g>
<g>
</g>
<g>
</g>
<g>
</g>
<g>
</g>
<g>
</g>
<g>
</g>
<g>
</g>
<g>
</g>
<g>
</g>
<g>
</g>
<g>
</g>
<g>
</g>
<g>
</g>
</svg>
