<?xml version="1.0" encoding="iso-8859-1"?>
<!-- Generator: Adobe Illustrator 19.0.0, SVG Export Plug-In . SVG Version: 6.00 Build 0)  -->
<svg version="1.1" id="Capa_1" xmlns="http://www.w3.org/2000/svg" xmlns:xlink="http://www.w3.org/1999/xlink" x="0px" y="0px"
	 viewBox="0 0 64.443 64.443" style="enable-background:new 0 0 64.443 64.443;" xml:space="preserve">
<g id="Water-skis">
	<path d="M49.956,58.656c-3.772,3.175-7.405,3.176-11.16-0.038c-4.666-3.463-9.248-3.456-13.67,0.063
		c-3.958,3.605-7.158,3.606-11.118-0.055c-4.746-3.635-9.207-3.627-13.644,0.022C-0.062,59-0.123,59.63,0.228,60.057
		c0.351,0.426,0.982,0.487,1.408,0.137c3.711-3.053,7.152-3.047,11.085-0.039c2.335,2.161,4.597,3.239,6.863,3.239
		c2.252,0,4.508-1.065,6.838-3.19c3.626-2.882,7.283-2.874,11.128-0.023c4.442,3.808,9.178,3.809,13.723-0.019
		c3.613-3.281,7.135-3.272,11.086,0.027c0.424,0.354,1.055,0.298,1.409-0.126c0.354-0.424,0.297-1.055-0.127-1.409
		C58.977,54.759,54.235,54.771,49.956,58.656z"/>
	<path d="M5.271,52.946c0.023,0,0.046-0.001,0.069-0.002l34.708-2.363c0.241-0.01,5.921-0.29,8.669-3.362
		c1.082-1.209,1.573-2.672,1.458-4.346c-0.037-0.551-0.524-0.966-1.066-0.93c-0.551,0.038-0.967,0.515-0.93,1.065
		c0.077,1.131-0.234,2.071-0.951,2.874c-2.182,2.444-7.218,2.698-7.292,2.702l-13.683,0.932l1.497-11.5
		c0.033-0.253-0.032-0.509-0.182-0.715l-6.387-8.823l2.236-11.596l6.024,5.84c0.178,0.173,0.414,0.273,0.662,0.282l9.719,0.332
		c0.012,0,0.023,0,0.035,0c0.537,0,0.981-0.426,0.999-0.966c0.019-0.552-0.414-1.015-0.965-1.034l-9.334-0.318l-6.687-6.483
		l0.868-4.502c0.804-0.042,1.585-0.288,2.271-0.748c2.06-1.385,2.609-4.187,1.226-6.247c-1.384-2.06-4.185-2.608-6.245-1.226h0
		c-2.059,1.384-2.608,4.186-1.226,6.245C21.264,8.8,21.957,9.364,22.766,9.7l-3.63,18.824c-0.001,0.005,0.001,0.01,0,0.016
		c-0.014,0.082-0.004,0.166,0.002,0.25c0.004,0.046-0.005,0.095,0.005,0.14c0.01,0.046,0.039,0.087,0.056,0.131
		c0.03,0.078,0.055,0.157,0.102,0.225c0.003,0.005,0.003,0.01,0.007,0.015l6.408,8.852l-1.497,11.503L5.204,50.949
		c-0.551,0.038-0.967,0.515-0.93,1.065C4.31,52.542,4.75,52.946,5.271,52.946z M22.424,6.942c-0.768-1.144-0.462-2.701,0.682-3.47
		c0.553-0.372,1.217-0.507,1.875-0.377c0.656,0.129,1.222,0.504,1.594,1.058c0.769,1.144,0.463,2.702-0.681,3.471
		c-0.554,0.371-1.22,0.503-1.876,0.377C23.362,7.872,22.797,7.496,22.424,6.942z"/>
	<path d="M63.443,21.335H44.035v-2.001c0-0.552-0.448-1-1-1c-0.552,0-1,0.448-1,1v6.002c0,0.552,0.448,1,1,1c0.552,0,1-0.448,1-1
		v-2.001h19.408c0.552,0,1-0.448,1-1C64.443,21.783,63.995,21.335,63.443,21.335z"/>
</g>
<g>
</g>
<g>
</g>
<g>
</g>
<g>
</g>
<g>
</g>
<g>
</g>
<g>
</g>
<g>
</g>
<g>
</g>
<g>
</g>
<g>
</g>
<g>
</g>
<g>
</g>
<g>
</g>
<g>
</g>
</svg>
