<?xml version="1.0" encoding="iso-8859-1"?>
<!-- Generator: Adobe Illustrator 19.0.0, SVG Export Plug-In . SVG Version: 6.00 Build 0)  -->
<svg version="1.1" id="Capa_1" xmlns="http://www.w3.org/2000/svg" xmlns:xlink="http://www.w3.org/1999/xlink" x="0px" y="0px"
	 viewBox="0 0 64.001 64.001" style="enable-background:new 0 0 64.001 64.001;" xml:space="preserve">
<g id="Workout-shoulders_1_">
	<path id="Workout-shoulders" d="M62.092,3.357c-0.533-0.137-1.08,0.183-1.218,0.718l-0.488,1.89L55.683,4.75l0.155-0.503
		c0.162-0.528-0.134-1.087-0.662-1.25c-0.529-0.161-1.087,0.134-1.25,0.662l-0.181,0.59l-4.286-1.108l0.488-1.891
		c0.138-0.535-0.183-1.08-0.718-1.218c-0.534-0.138-1.08,0.184-1.218,0.718l-0.738,2.856c0,0.001-0.001,0.001-0.001,0.002
		c0,0.001,0,0.002,0,0.003l-0.738,2.856c-0.138,0.535,0.183,1.08,0.718,1.218c0.083,0.021,0.168,0.032,0.25,0.032
		c0.445,0,0.851-0.299,0.968-0.751l0.488-1.89l4.199,1.085l-4.918,15.999l-15.003-0.008v-2.56c0-0.069-0.026-0.129-0.039-0.194
		c2.245-0.448,3.942-2.432,3.942-4.806c0-2.704-2.2-4.903-4.903-4.903c-2.704,0-4.903,2.2-4.903,4.903
		c0,2.375,1.698,4.358,3.942,4.806c-0.013,0.065-0.039,0.125-0.039,0.194v2.559l-15.471-0.008L10.845,6.162l4.198-1.085l0.489,1.89
		c0.117,0.451,0.522,0.751,0.968,0.751c0.083,0,0.167-0.011,0.25-0.032c0.535-0.138,0.856-0.684,0.718-1.218L16.73,3.611
		c0-0.001,0-0.002,0-0.003c0-0.001-0.001-0.001-0.001-0.002L15.991,0.75c-0.138-0.535-0.685-0.856-1.218-0.718
		c-0.535,0.138-0.856,0.684-0.718,1.218l0.488,1.891l-4.287,1.108l-0.181-0.59C9.913,3.13,9.35,2.833,8.826,2.997
		c-0.528,0.162-0.824,0.722-0.662,1.25l0.155,0.503L3.616,5.965l-0.489-1.89C2.989,3.54,2.445,3.22,1.909,3.357
		C1.374,3.495,1.053,4.041,1.191,4.575l1.478,5.717c0.117,0.451,0.522,0.75,0.968,0.75c0.083,0,0.167-0.01,0.251-0.032
		c0.535-0.138,0.856-0.684,0.718-1.219L4.117,7.901l4.791-1.238l5.161,16.774c0.129,0.42,0.516,0.706,0.955,0.706l16.21,0.008
		v12.754h-2.03c-0.425,0-0.804,0.269-0.944,0.67L19.74,62h-5.194c-0.552,0-1,0.448-1,1c0,0.552,0.448,1,1,1h5.905
		c0.01,0,0.019-0.006,0.03-0.006c0.079-0.002,0.151-0.025,0.226-0.045c0.052-0.014,0.106-0.019,0.154-0.041
		c0.062-0.028,0.112-0.073,0.167-0.113c0.049-0.036,0.102-0.064,0.143-0.108c0.041-0.042,0.066-0.097,0.099-0.147
		c0.039-0.06,0.082-0.115,0.108-0.183c0.004-0.01,0.013-0.017,0.017-0.028l8.52-24.424h4.49l8.723,24.431
		c0.004,0.01,0.012,0.018,0.016,0.028c0.013,0.032,0.033,0.059,0.049,0.09c0.04,0.077,0.085,0.148,0.142,0.21
		c0.026,0.029,0.054,0.053,0.083,0.079c0.063,0.055,0.13,0.099,0.203,0.137c0.033,0.017,0.063,0.035,0.097,0.048
		c0.112,0.042,0.229,0.071,0.351,0.071c0.001,0,0.002,0,0.003,0h5.902c0.552,0,1-0.448,1-1c0-0.552-0.448-1-1-1h-5.2l-8.724-24.431
		c-0.142-0.398-0.519-0.664-0.942-0.664h-1.875V24.153l15.742,0.008h0c0.439,0,0.827-0.287,0.956-0.706l5.162-16.792l4.79,1.238
		l-0.489,1.891c-0.138,0.535,0.183,1.08,0.718,1.218c0.084,0.021,0.168,0.032,0.251,0.032c0.445,0,0.851-0.299,0.968-0.75
		l1.478-5.717C62.948,4.04,62.627,3.495,62.092,3.357z M29.138,14.593c0-1.707,1.389-3.097,3.097-3.097s3.097,1.389,3.097,3.097
		s-1.389,3.097-3.097,3.097S29.138,16.301,29.138,14.593z"/>
</g>
<g>
</g>
<g>
</g>
<g>
</g>
<g>
</g>
<g>
</g>
<g>
</g>
<g>
</g>
<g>
</g>
<g>
</g>
<g>
</g>
<g>
</g>
<g>
</g>
<g>
</g>
<g>
</g>
<g>
</g>
</svg>
