<?xml version="1.0" encoding="iso-8859-1"?>
<!-- Generator: Adobe Illustrator 19.0.0, SVG Export Plug-In . SVG Version: 6.00 Build 0)  -->
<svg version="1.1" id="Capa_1" xmlns="http://www.w3.org/2000/svg" xmlns:xlink="http://www.w3.org/1999/xlink" x="0px" y="0px"
	 viewBox="0 0 64 64" style="enable-background:new 0 0 64 64;" xml:space="preserve">
<g id="Bar-workout_1_">
	<path id="Bar-workout" d="M57.194,0h-5.168c-0.552,0-1,0.448-1,1v5.444h-8.574V4.86c0-0.552-0.448-1-1-1c-0.552,0-1,0.448-1,1
		v1.584H24.364V4.86c0-0.552-0.448-1-1-1c-0.552,0-1,0.448-1,1v1.584h-9.336c-0.019,0-0.035,0.01-0.054,0.011V1c0-0.552-0.448-1-1-1
		H6.806c-0.552,0-1,0.448-1,1v62c0,0.552,0.448,1,1,1h5.168c0.552,0,1-0.448,1-1V8.433c0.019,0.001,0.035,0.011,0.054,0.011h9.336
		v14.519c0,0.552,0.448,1,1,1h8.044v10.612c0,0.104,0.03,0.198,0.059,0.292h-0.351c-0.494,0-0.914,0.36-0.988,0.848l-2.584,16.812
		c-0.084,0.546,0.291,1.056,0.837,1.14c0.541,0.079,1.057-0.29,1.14-0.836l2.454-15.963h0.868l2.454,15.963
		c0.076,0.495,0.502,0.848,0.987,0.848c0.051,0,0.102-0.004,0.153-0.012c0.546-0.084,0.92-0.594,0.836-1.14l-2.584-16.812
		c-0.075-0.488-0.495-0.848-0.988-0.848h-0.351c0.029-0.094,0.059-0.188,0.059-0.292V23.964h8.044c0.552,0,1-0.448,1-1V8.444h8.574
		V63c0,0.552,0.448,1,1,1h5.168c0.552,0,1-0.448,1-1V1C58.194,0.448,57.746,0,57.194,0z M10.974,62H7.806V2h3.168V62z
		 M40.452,21.964h-7.044v-1.6c0-0.137-0.028-0.267-0.078-0.385c2.248-0.433,3.954-2.41,3.954-4.783c0-2.688-2.187-4.876-4.876-4.876
		s-4.876,2.188-4.876,4.876c0,2.373,1.706,4.35,3.954,4.783c-0.05,0.119-0.078,0.249-0.078,0.385v1.6h-7.044V8.444h16.088V21.964z
		 M32.408,18.072c-1.586,0-2.876-1.29-2.876-2.876c0-1.586,1.29-2.876,2.876-2.876c1.586,0,2.876,1.29,2.876,2.876
		C35.284,16.782,33.994,18.072,32.408,18.072z M56.194,62h-3.168V2h3.168V62z"/>
</g>
<g>
</g>
<g>
</g>
<g>
</g>
<g>
</g>
<g>
</g>
<g>
</g>
<g>
</g>
<g>
</g>
<g>
</g>
<g>
</g>
<g>
</g>
<g>
</g>
<g>
</g>
<g>
</g>
<g>
</g>
</svg>
