<svg width="24" height="24" viewBox="0 0 24 24" fill="none" xmlns="http://www.w3.org/2000/svg">
<g clip-path="url(#clip0)">
<path fill-rule="evenodd" clip-rule="evenodd" d="M23.9186 12.2727C23.9186 11.4218 23.841 10.6036 23.6967 9.81818H12.2034V14.46H18.771C18.4881 15.96 17.6283 17.2309 16.3359 18.0818V21.0927H20.2798C22.5873 19.0036 23.9186 15.9273 23.9186 12.2727Z" fill="#4285F4"/>
<path fill-rule="evenodd" clip-rule="evenodd" d="M12.2034 24C15.4983 24 18.2607 22.9255 20.2798 21.0927L16.3359 18.0818C15.2431 18.8018 13.8453 19.2273 12.2034 19.2273C9.02494 19.2273 6.33465 17.1164 5.37501 14.28H1.29797V17.3891C3.30599 21.3109 7.43295 24 12.2034 24Z" fill="#34A853"/>
<path fill-rule="evenodd" clip-rule="evenodd" d="M5.37504 14.28C5.13097 13.56 4.9923 12.7909 4.9923 12C4.9923 11.2091 5.13097 10.44 5.37504 9.72V6.61091H1.298C0.471495 8.23091 0 10.0636 0 12C0 13.9364 0.471495 15.7691 1.298 17.3891L5.37504 14.28Z" fill="#FBBC05"/>
<path fill-rule="evenodd" clip-rule="evenodd" d="M12.2034 4.77273C13.995 4.77273 15.6037 5.37818 16.8684 6.56727L20.3685 3.12545C18.2551 1.18909 15.4927 0 12.2034 0C7.43295 0 3.30599 2.68909 1.29797 6.61091L5.37502 9.72C6.33465 6.88364 9.02494 4.77273 12.2034 4.77273Z" fill="#EA4335"/>
</g>
<defs>
<clipPath id="clip0">
<rect width="24" height="24" fill="white"/>
</clipPath>
</defs>
</svg>
